<?xml version="1.0" standalone="no"?>
<!DOCTYPE svg PUBLIC "-//W3C//DTD SVG 1.1//EN" "http://www.w3.org/Graphics/SVG/1.1/DTD/svg11.dtd" >
<!--
2013-9-30: Created.
-->
<svg>
<metadata>
Created by iconfont
</metadata>
<defs>

<font id="iconfont" horiz-adv-x="1024" >
  <font-face
    font-family="iconfont"
    font-weight="500"
    font-stretch="normal"
    units-per-em="1024"
    ascent="896"
    descent="-128"
  />
    <missing-glyph />
    
    <glyph glyph-name="wo" unicode="&#58918;" d="M860.423993-7.414621 521.048585-7.414621l-17.018605 0L163.673222-7.414621c-43.608194 0-34.051537 68.071352-34.051537 68.071352-1.046842 41.48074 34.051537 68.071352 34.051537 68.071352s178.687682 86.152149 204.214055 102.106516c20.774139 12.995989 30.148647 38.391379 32.972972 47.464011-60.643172 56.670697-118.060883 151.166885-118.060883 207.803813l0 85.088934c-2.12643 100.045577 108.438735 204.214055 204.214055 204.214055l34.036187 0c89.375563 1.064238 207.405747-99.912547 204.197682-204.214055l0-85.088934c0-46.499034-38.937824-147.278321-101.542674-207.239971 2.594081-8.575306 11.916401-34.766828 33.05586-48.028876 25.460882-15.954367 203.665563-102.106516 203.665563-102.106516s35.016515-26.590612 33.9533-68.071352C894.377292 60.655707 903.916553-7.414621 860.423993-7.414621zM826.489112 94.691895l-203.665563 102.107539c0 0-50.903344 22.334681-50.903344 68.071352l0.182149 0.066515 0 32.704866C639.291616 337.827401 674.20887 445.319577 674.20887 500.39494l0 82.895989c0 76.479859-85.819574 141.061736-157.083641 141.061736l-26.190499 0c-67.871807 0-157.082618-66.476017-157.082618-141.061736l0-82.895989c0-68.868507 62.355163-171.108053 119.108748-206.17471l0-29.349445 0 0c0-45.735647-51.036373-68.071352-51.036373-68.071352l-204.214055-102.107539c-24.463158-20.208251-17.017582-51.054793-17.017582-51.054793l323.338153 0 17.018605 0 322.408991 0C843.457576 43.638125 850.884732 74.483644 826.489112 94.691895z"  horiz-adv-x="1024" />

    
    <glyph glyph-name="ai03" unicode="&#58994;" d="M762.290975 635.738441c-66.855664 66.85771-155.744133 103.677291-250.291486 103.677291-94.54633 0-183.434799-36.81958-250.290463-103.677291-66.855664-66.85771-103.675244-155.750273-103.675244-250.302743 0-94.54633 36.81958-183.434799 103.675244-250.290463s155.744133-103.674221 250.290463-103.674221 183.434799 36.818557 250.291486 103.674221c66.856687 66.855664 103.675244 155.744133 103.675244 250.290463C865.966219 479.988168 829.147662 568.880731 762.290975 635.738441zM511.999488 43.502026c-188.543144 0-341.933673 153.390529-341.933673 341.933673 0 188.550307 153.390529 341.949023 341.933673 341.949023 188.543144 0 341.934696-153.397692 341.934696-341.949023C853.935208 196.893578 700.543655 43.502026 511.999488 43.502026zM536.063557 583.982684 487.934396 583.982684 487.934396 409.504884 313.466829 409.504884 313.466829 361.37163 487.934396 361.37163 487.934396 186.902016 536.063557 186.902016 536.063557 361.37163 710.532147 361.37163 710.532147 409.504884 536.063557 409.504884Z"  horiz-adv-x="1024" />

    
    <glyph glyph-name="tongxunlu" unicode="&#59074;" d="M711.602525 508.208906l215.391628 0c16.918321 0 29.658484-8.594749 29.658484-26.744107 0-18.154475-14.712073-26.749224-31.629371-26.749224L711.602525 454.715575c-16.925485 0-30.656207 8.594749-30.656207 26.749224C680.946318 499.615181 694.677041 508.208906 711.602525 508.208906zM956.088796 358.900346c0-18.151405-12.748349-26.752294-29.661553-26.752294L757.275751 332.148052c-16.925485 0-30.65723 8.597819-30.65723 26.752294 0 18.149359 13.731746 26.743084 30.65723 26.743084l170.132842 0C944.324868 385.64343 956.088796 377.049704 956.088796 358.900346zM800.847106 81.614042c0-39.784098-32.308847-64.12446-72.02643-64.12446L466.867592 17.489582l-84.297918 0-245.941412 0c-39.711444 0-72.024383 24.337291-72.024383 64.12446l0 17.287735c0 36.45426 26.839275 68.769246 61.099566 81.065294l146.643871 65.364707c0 0 39.749306 12.218276 50.631144 24.411993 7.239891 8.121981 9.473769 34.901905 0.296759 52.481282-9.174963 17.577331-83.47825 114.289999-83.47825 195.409528 0 130.822534 85.99149 236.876965 192.06127 236.876965 106.073874 0 192.058201-106.054431 192.058201-236.876965 0-84.695984-83.380012-177.934528-90.234117-200.878077-6.859221-22.943548-7.41283-40.902572 0.333598-48.523133 12.050454-11.843746 43.062771-23.88806 43.062771-23.88806l162.670893-63.391772c34.262338-12.301164 61.10059-45.601594 61.10059-82.055854L800.847106 81.614042 800.847106 81.614042zM926.918429 216.700693 813.853327 216.700693c-16.921391 0-30.653137 8.594749-30.653137 26.752294 0 18.147312 13.731746 26.743084 30.653137 26.743084l114.049522 0c16.921391 0 29.647227-8.594749 29.647227-26.743084C957.549054 225.298512 943.837774 216.700693 926.918429 216.700693z"  horiz-adv-x="1024" />

    
    <glyph glyph-name="xingchengfenxiangweixinsaoyisao" unicode="&#59014;" d="M913.338182 73.890909c0-49.896727-58.368-68.445091-108.194909-72.168727l-144.314182 0 0-72.145455 180.363636 0c95.813818 0 144.221091 48.407273 144.221091 144.290909l0 142.126545-72.075636 2.071273L913.338182 73.890909zM119.877818 109.870545l0 108.218182-72.145455 0 0-144.197818c0-95.883636 77.963636-144.290909 173.777455-144.290909l150.784 0 0 72.145455-144.290909 0C178.222545 1.722182 119.877818 60.020364 119.877818 109.870545zM119.877818 686.964364c0 49.850182 58.321455 108.171636 108.148364 108.171636l144.290909 0L372.317091 867.258182 221.533091 867.258182c-95.813818 0-173.777455-77.963636-173.777455-173.800727l0-114.734545 72.145455 0L119.901091 686.964364zM809.821091 867.258182l-146.897455 0-2.117818-72.122182 144.314182 0c50.362182 0 108.194909-56.715636 108.194909-108.171636l0-108.218182 72.075636 1.792L985.390545 687.848727C985.413818 786.757818 906.658909 867.258182 809.821091 867.258182zM50.967273 362.263273l931.211636 0 3.234909 72.005818L47.732364 434.269091 50.967273 362.263273z"  horiz-adv-x="1024" />

    
    <glyph glyph-name="faxian" unicode="&#59002;" d="M511.8194 830.261728C264.397884 830.261728 62.848677 628.712522 62.848677 381.291005s201.549206-448.970723 448.970723-448.970723S960.790123 133.869489 960.790123 381.291005 759.602116 830.261728 511.8194 830.261728z m0-861.821516c-227.555556 0-412.850794 185.295238-412.850793 412.850793S284.263845 794.141799 511.8194 794.141799 924.670194 608.846561 924.670194 381.291005s-184.934039-412.850794-412.850794-412.850793zM261.869489 131.341093l300.879012 199.382011L762.130511 631.240917l-300.879012-199.38201-199.38201-300.517814z m218.886772 281.013052c17.337566 17.337566 44.788713 17.337566 62.126279 0 17.337566-16.976367 17.337566-44.788713 0-62.126279-17.337566-17.337566-44.788713-17.337566-62.126279 0-16.976367 17.337566-16.976367 45.149912 0 62.126279z"  horiz-adv-x="1024" />

    
    <glyph glyph-name="weixintubiao" unicode="&#58941;" d="M0 542.198778v-50.066083c0-120.02831 103.470809-227.862427 176.676678-276.958131l-43.164862-133.58646c20.778306 4.845105 147.565334 77.752396 153.536891 76.754874l142.950948-23.47908 0.570013 3.46079 55.264052-0.217148-11.875257 97.024241V251.818213c0 178.542789 185.647586 333.76936 370.49444 333.76936h26.702363c11.502034 0 12.920279-2.470053 23.356934-3.338643 0 22.291553-7.369445 46.096354-19.136128 69.717936H667.545506v-9.635923c0-22.074406-24.653033-46.727439-46.727439-46.727439h-6.677287c-32.300698 0-66.752515 20.764735-66.752515 50.066083v6.297279H353.801222v-12.974566c0-22.223695-25.935561-43.388795-46.734225-43.388796h-10.009145c-27.584525 0-63.420657 23.750514-63.420657 50.066083v10.009145c0 27.163802 35.944706 50.066083 63.420657 50.066083h6.677287c24.78875 0 50.066083-19.665425 50.066083-43.388796v-10.151648h193.587043v3.474361c0 26.105207 32.59249 50.072868 60.082014 50.072868h13.347788c25.962704 0 46.727439-26.030563 46.727439-53.404726v-0.142503h207.715206c-31.533896 63.122079-94.445614 124.825914-132.276789 152.34258C676.984639 852.550132 569.863037 896 457.272031 896h-23.36372C308.166307 896 213.584976 849.666141 140.738758 795.31818 80.358166 750.266849 0 645.377795 0 542.198778z m500.660826-313.744284v-3.338644c0-165.54108 182.498946-310.412427 350.455793-310.412427h36.711508c49.523214 0 96.902095 20.025076 123.50267 20.025076 16.693218 0 99.650369-57.856251 125.775935-62.728499l-32.321057 106.117295c6.039416 9.025195 41.861977 36.867583 54.232602 49.238207 17.426091 17.426091 33.949663 34.424673 47.908179 55.56263 25.765914 39.018701 54.734755 89.573365 54.734755 152.206863 0 32.924998-6.025845 64.553896-16.93751 94.309897h-187.405123c-4.227591-17.134299-25.765914-34.221097-42.649137-34.221098h-13.354574c-16.910366 0-40.050152 19.760427-40.050152 33.372865v0.848233H812.742575c-5.924057-17.168228-26.295211-34.227883-38.387616-34.227883h-20.031862c-18.586473 0-40.050152 21.463678-40.050152 40.050151 0 26.709149 20.01829 46.727439 46.727439 46.727439h6.670502c20.052219 0 46.734225-22.93621 46.734225-43.388795 0-2.91792-0.570012-5.917271-1.581106-8.916621h148.44071V341.934448c0 19.794357 21.219387 40.056938 40.050152 40.056937h3.338643c23.682655 0 53.404726-16.917152 53.404726-40.050152v-6.677287c0-1.85254-0.237505-3.718652-0.678586-5.584763h187.255835c-49.984652 135.934368-202.435806 232.544671-353.461929 232.544671h-23.363719c-191.245921 0-367.149011-139.802309-367.149011-333.776146z"  horiz-adv-x="1261" />

    
    <glyph glyph-name="weixin" unicode="&#58900;" d="M850.073889 585.694445c14.400795 0 28.621089-1.057555 42.768488-2.638101C854.417501 762.019146 663.098432 894.965586 444.697166 894.965586 200.553582 894.966744 0.538034 728.553437 0.538034 517.23802c0-121.977492 66.538016-222.14089 177.747887-299.828357l-44.419616-133.611751 155.233772 77.865654c55.588737-11.005975 100.150671-22.297745 155.595932-22.297745 13.931028 0 27.756764 0.68151 41.473736 1.758735-8.689537 29.696-13.716972 60.792045-13.716972 93.054409 0.002314 194.046264 166.621577 351.51548 377.621116 351.51548zM611.242377 706.112217c33.434468 0 55.588737-21.993437 55.588737-55.423277 0-33.288678-22.155426-55.584108-55.588737-55.584108-33.288678 0-66.681492 22.296588-66.681491 55.585265 0 33.427525 33.395128 55.42212 66.681491 55.42212z m-310.827389-111.008542c-33.289835 0-66.900176 22.296588-66.900177 55.585265 0 33.427525 33.611498 55.42212 66.900177 55.42212 33.286364 0 55.442947-21.994594 55.442946-55.423277 0-33.286364-22.156583-55.585266-55.442946-55.585265zM1255.414744 239.526906c0 177.562757-177.674992 322.30776-377.257799 322.307761-211.324673 0-377.764592-144.743846-377.764592-322.307761 0-177.885577 166.439919-322.304289 377.764592-322.304289 44.239114 0 88.875101 11.169121 133.293559 22.296588l121.805089-66.715047-33.396285 110.99003c89.163209 66.879349 155.555435 155.570477 155.555436 255.732718z m-499.709686 55.569067c-22.119557 0-44.454328 21.991123-44.454328 44.4335 0 22.136913 22.334771 44.419616 44.454328 44.419616 33.576786 0 55.58758-22.28386 55.587579-44.419616 0-22.442377-22.01195-44.433501-55.587579-44.4335z m244.290531 0c-21.978395 0-44.131507 21.991123-44.131508 44.4335 0 22.136913 22.155426 44.419616 44.130351 44.419616 33.288678 0 55.585266-22.28386 55.585265-44.419616 0.002314-22.442377-22.296588-44.433501-55.585265-44.4335z"  horiz-adv-x="1255" />

    
    <glyph glyph-name="weixintubiao1" unicode="&#58925;" d="M0 542.197691v-50.065902C0 372.103023 103.469798 264.269234 176.676655 215.17433l-43.164916-133.586739c20.777959 4.844991 147.564712 77.752848 153.5367 76.75485l142.949721-23.479954 0.569999 3.461993 55.264892-0.217-11.875977 97.023811v16.685967c0 178.542651 185.647637 333.769348 370.494277 333.769348h26.701948c11.501978 0 12.919975-2.469995 23.356954-3.339993 0 22.291956-7.369986 46.09691-19.135963 69.718864h-207.829594v-9.635982c0-22.073957-24.653952-46.726909-46.727909-46.726908h-6.676986c-32.299937 0-66.75287 20.763959-66.75287 50.065902v6.296988H353.800309v-12.974975c0-22.222957-25.934949-43.387915-46.733909-43.387915h-10.00998c-27.583946 0-63.419876 23.749954-63.419876 50.065902v10.00898c0 27.163947 35.94493 50.065902 63.419876 50.065903h6.677987c24.788952 0 50.065902-19.665962 50.065902-43.388916v-10.15198h193.586622v3.474993c0 26.104949 32.592936 50.072902 60.081883 50.072903h13.347973c25.962949 0 46.727909-26.030949 46.727909-53.404896v-0.143H875.258291c-31.533938 63.121877-94.445816 124.825756-132.276742 152.342703C676.982678 852.548085 569.861887 895.998 457.271107 895.998h-23.363954c-125.741754 0-220.32257-46.33391-293.169428-100.681803C80.358843 750.265285 0 645.376489 0 542.196691z m500.659022-313.744387v-3.337994c0-165.540677 182.499644-310.412394 350.456316-310.412393h36.710928c49.522903 0 96.901811 20.024961 123.502759 20.02496 16.692967 0 99.649805-57.855887 125.775754-62.727877l-32.320937 106.116793c6.039988 9.024982 41.861918 36.867928 54.231894 49.238904 17.425966 17.425966 33.949934 34.423933 47.907907 55.561891 25.76595 39.018924 54.734893 89.572825 54.734893 152.206703 0 32.924936-6.025988 64.553874-16.936967 94.309816h-187.404634c-4.227992-17.133967-25.76595-34.220933-42.649917-34.220934h-13.353974c-16.909967 0-40.049922 19.759961-40.049921 33.372935v0.847999H812.741413c-5.923988-17.167966-26.295949-34.227933-38.387925-34.227934h-20.031961c-18.585964 0-40.049922 21.463958-40.049922 40.049922 0 26.709948 20.017961 46.727909 46.726909 46.727909h6.669987c20.052961 0 46.734909-22.936955 46.734908-43.389915 0-2.916994-0.569999-5.915988-1.580997-8.915983h148.439711v12.254976c0 19.794961 21.219959 40.056922 40.049921 40.056922h3.339994c23.681954 0 53.403896-16.916967 53.403895-40.049922v-6.676987c0-1.852996-0.237-3.718993-0.677998-5.584989h187.254634c-49.983902 135.934735-202.434605 232.544546-353.46031 232.544546H867.808305c-191.245626 0-367.149283-139.801727-367.149283-333.775348z"  horiz-adv-x="1261" />

    
    <glyph glyph-name="gengduo" unicode="&#59043;" d="M822.3 385.5l-366-356c-21.6-21-21.6-55 0-76s56.5-21 78.1 0l405 394c21.6 21 21.6 55 0 76l-405 393.9c-10.8 10.5-24.9 15.7-39.1 15.7-14.1 0-28.3-5.2-39-15.7-21.6-21-21.6-55 0-76 0 0.1 366-355.9 366-355.9z"  horiz-adv-x="1024" />

    
    <glyph glyph-name="gouwu" unicode="&#58880;" d="M83.2 869.905067v-973.151574H940.032V869.905067H83.2z m646.01088-258.710187V420.150613h-1.365333c-11.895467-104.67328-104.297813-186.44992-216.214187-186.44992-111.919787 0-204.322133 81.75616-216.261973 186.44992h-1.365334V675.444053h86.985387v-249.695573c8.802987-61.842773 63.941973-109.725013 130.618027-109.725013 66.604373 0 121.74336 47.796907 130.614613 109.574826V675.467947h86.9888v-64.273067z"  horiz-adv-x="1024" />

    
    <glyph glyph-name="diannao" unicode="&#58956;" d="M834.4 103.2H189.6c-79.2 0-144 64.8-144 144V676c0 79.2 64.8 144 144 144h645.6c79.2 0 144-64.8 144-144v-428.8c-0.8-79.2-64.8-144-144.8-144zM189.6 772c-52.8 0-96-43.2-96-96v-428.8c0-52.8 43.2-96 96-96h645.6c52.8 0 96 43.2 96 96V676c0 52.8-43.2 96-96 96H189.6zM664-28H360c-12.8 0-24 10.4-24 24 0 12.8 10.4 24 24 24h304c12.8 0 24-10.4 24-24s-10.4-24-24-24zM452-23.2c-11.2 0-20 8.8-20 20V115.2c0 11.2 8.8 20 20 20s20-8.8 20-20v-118.4c0-11.2-8.8-20-20-20zM577.6-23.2c-11.2 0-20 8.8-20 20V115.2c0 11.2 8.8 20 20 20s20-8.8 20-20v-118.4c0-11.2-9.6-20-20-20zM933.6 192H90.4c-12 0-21.6 9.6-21.6 21.6 0 12 9.6 21.6 21.6 21.6h842.4c12 0 21.6-9.6 21.6-21.6 0-12-9.6-21.6-20.8-21.6z"  horiz-adv-x="1024" />

    
    <glyph glyph-name="youxi" unicode="&#58881;" d="M901.879 346.538h-199.813c-10.924 0-20.485-7.1-23.912-17.472-17.328-52.438-58.781-93.892-111.219-111.22-10.372-3.427-17.472-12.989-17.472-23.912v-199.814c0-22.545 27.259-33.837 43.201-17.895l327.11 327.11c15.941 15.943 4.651 43.202-17.896 43.202zM566.934 550.154c52.438-17.328 93.892-58.781 111.219-111.22 3.427-10.372 12.989-17.472 23.912-17.472h199.814c22.545 0 33.837 27.259 17.895 43.201l-327.11 327.11c-15.942 15.942-43.201 4.651-43.201-17.895v-199.814c0-10.923 7.1-20.484 17.472-23.911zM457.066 217.847c-52.438 17.328-93.892 58.781-111.22 111.22-3.427 10.372-12.989 17.472-23.912 17.472h-199.814c-22.545 0-33.837-27.259-17.895-43.201l327.11-327.11c15.942-15.942 43.201-4.651 43.201 17.895v199.812c0.001 10.924-7.099 20.486-17.471 23.913zM431.337 791.774l-327.11-327.11c-15.942-15.942-4.651-43.201 17.895-43.201h199.814c10.924 0 20.485 7.1 23.912 17.472 17.328 52.438 58.781 93.892 111.219 111.22 10.372 3.427 17.472 12.989 17.472 23.912v199.813c0 22.545-27.259 33.837-43.201 17.895z"  horiz-adv-x="1024" />

    
    <glyph glyph-name="weixintubiao-" unicode="&#58882;" d="M552.768 435.392V896h-92.16v-460.608H0v-102.784h460.608V-128h92.16V332.608h474.816V435.392z"  horiz-adv-x="1027" />

    
    <glyph glyph-name="weixintubiao-1" unicode="&#58883;" d="M512 827.072c-282.752 0-512-182.656-512-407.936 0-121.664 66.944-230.72 172.992-305.536l-12.608-172.672 173.44 95.744A627.328 627.328 0 0 1 512 11.264c282.752 0 512 182.656 512 407.872 0 225.28-229.248 407.936-512 407.936z"  horiz-adv-x="1024" />

    
    <glyph glyph-name="weixintubiao-2" unicode="&#58884;" d="M800.704 66.048c-9.536 22.592-37.888 55.04-119.296 82.88-140.928 48.128-207.232 107.52-212.608 152.064-1.664 13.952 2.56 36.864 9.472 45.056 43.904 52.032 97.984 110.656 97.984 197.632 0 121.408-77.888 219.968-173.952 219.968S228.352 665.152 228.352 543.68c0-85.824 55.936-141.952 95.744-196.224 25.6-34.944 8.768-75.648-15.552-91.456-31.68-20.608-251.2-108.544-299.2-181.12-4.224-5.504-9.344-24.256-9.344-26.752a43.968 43.968 0 0 1 43.712-43.776H760.96c20.736 0 46.656 17.024 40.832 58.944-0.128 1.024-0.64 1.92-1.088 2.752zM874.368 424.32V590.656h-71.744V424.32h-150.144v-55.488h150.144v-151.36h71.744V368.832H1024V424.32z"  horiz-adv-x="1024" />

    
    <glyph glyph-name="weixintubiao-3" unicode="&#58885;" d="M809.343442 655.039172H544.12794A254.335523 254.335523 0 0 1 289.344417 895.99872C148.288682 895.99872 33.920896 782.526933 33.920896 642.367196c0-52.351902 15.99997-101.11981 43.519919-141.567735v-206.271613h92.351827l35.647933 269.759494 603.902867 1.983996V655.039172zM946.623185 267.263899V473.471512h-92.415827l-35.647933-269.759494-603.902867-1.983996v-88.767834h265.151502A254.527523 254.527523 0 0 1 734.655583-127.99936c141.119735 0 255.423521 113.535787 255.423521 253.695524 0 52.351902-15.99997 101.11981-43.455919 141.567735z"  horiz-adv-x="1024" />

    
    <glyph glyph-name="weixintubiao-4" unicode="&#58886;" d="M512 896a512 512 0 1 1 0-1024A512 512 0 0 1 512 896z m73.152-589.696l-370.304-224L416 438.848l402.304 217.152-233.152-349.696zM507.2 371.2m-46.464 0a46.464 46.464 0 1 1 92.928 0 46.464 46.464 0 1 1-92.928 0Z"  horiz-adv-x="1024" />

    
    <glyph glyph-name="weixintubiao-5" unicode="&#58887;" d="M949.824-101.632H76.608c-41.792 0-76.16 34.368-76.608 76.352-0.064 8.128 7.808 36.224 16.384 47.36 46.336 70.144 209.984 148.032 307.712 194.624 28.864 13.76 53.824 25.6 62.208 30.976a56.96 56.96 0 0 1 22.976 36.096 52.864 52.864 0 0 1-10.176 41.728c-7.488 10.496-15.488 20.736-23.68 31.232-45.632 58.88-97.408 125.632-97.408 221.632 0 160.64 105.536 291.264 235.2 291.264s235.2-130.624 235.2-291.264c0-108.608-64.32-184.384-115.968-245.248l-8.832-10.368c-3.328-4.608-7.616-24.512-6.144-36.992 5.184-42.88 82.368-110.848 243.136-165.76 86.144-29.504 139.712-67.776 159.232-113.984a27.008 27.008 0 0 0 2.88-9.152c5.184-37.632-7.04-60.736-18.176-73.472a72.448 72.448 0 0 0-54.72-25.024zM46.848-26.24a29.76 29.76 0 0 1 29.76-28.48h873.216a26.24 26.24 0 0 1 19.456 8.896c6.464 7.36 9.024 19.008 7.424 33.856-9.92 21.12-38.848 56.128-131.2 87.616-165.632 56.64-265.664 131.136-274.56 204.48-2.304 19.392 2.24 55.488 16.896 72.896l8.96 10.496c51.584 60.608 104.896 123.392 104.896 214.848 0 134.72-84.544 244.352-188.352 244.352-103.872 0-188.352-109.632-188.352-244.352 0-80 44.544-137.344 87.552-192.896 8.448-10.88 16.704-21.504 24.448-32.128 16.768-22.976 23.296-50.688 18.368-77.824-5.056-27.52-21.312-52.48-43.52-67.008-10.944-7.104-34.688-18.368-67.584-34.112-87.232-41.472-249.6-118.72-289.856-179.648-2.56-4.032-6.4-15.872-7.552-20.992z"  horiz-adv-x="1024" />

    
    <glyph glyph-name="weixintubiao-6" unicode="&#58888;" d="M512 896C229.696 896 0 666.304 0 384s229.696-512 512-512 512 229.696 512 512-229.696 512-512 512zM44.352 384C44.352 641.792 254.144 851.648 512 851.648c137.088 0 260.544-59.264 346.112-153.472L403.968 452.928l-224.256-397.632A466.24 466.24 0 0 0 44.352 384z m692.736 198.336L566.272 326.08 288.64 158.144l147.712 261.888 300.736 162.304zM512-83.648a466.176 466.176 0 0 0-322.88 129.664l408.576 247.168 265.856 398.72A465.024 465.024 0 0 0 979.648 384c0-257.792-209.792-467.648-467.648-467.648zM507.392 371.776m-44.416 0a44.416 44.416 0 1 1 88.832 0 44.416 44.416 0 1 1-88.832 0Z"  horiz-adv-x="1024" />

    
    <glyph glyph-name="weixintubiao-7" unicode="&#58889;" d="M150.208-70.848l14.208 194.24C59.776 201.344 0 311.104 0 426.304 0 653.824 229.696 838.848 512 838.848s512-185.088 512-412.544-229.696-412.48-512-412.48a622.4 622.4 0 0 0-167.488 22.592l-194.304-107.264zM512 793.344C254.784 793.344 45.504 628.736 45.504 426.368c0-103.936 56.704-203.648 155.648-273.344l10.56-7.424-9.984-136 137.344 75.776 9.152-2.688c52.416-15.488 107.52-23.36 163.776-23.36 257.216 0 466.496 164.608 466.496 366.976S769.216 793.344 512 793.344z"  horiz-adv-x="1024" />

    
    <glyph glyph-name="weixintubiao-8" unicode="&#58890;" d="M805.632-27.84H65.024A65.536 65.536 0 0 0 0 36.928c-0.064 6.912 6.592 30.72 13.888 40.128 39.36 59.584 178.112 125.632 260.992 165.056 24.512 11.712 45.696 21.76 52.736 26.368a47.872 47.872 0 0 1 19.52 30.656 45.12 45.12 0 0 1-8.576 35.456c-6.4 8.64-13.184 17.408-20.096 26.368-38.72 49.92-82.624 106.56-82.624 187.968 0 136.192 89.472 246.912 199.488 246.912s199.488-110.72 199.488-246.912c0-92.16-54.592-156.416-98.368-208l-7.552-8.896c-2.816-3.904-6.464-20.736-5.184-31.36 4.416-36.352 69.888-94.016 206.272-140.608 73.088-24.96 118.528-57.408 135.04-96.64 0.576-1.152 1.92-3.968 2.496-7.808 4.416-31.872-5.952-51.52-15.424-62.336a61.824 61.824 0 0 0-46.464-21.12zM39.744 36.032a25.344 25.344 0 0 1 25.28-24.192h740.608a22.08 22.08 0 0 1 16.512 7.552c5.504 6.272 7.68 16.128 6.272 28.672-8.384 17.92-32.96 47.616-111.296 74.368-140.48 48-225.344 111.232-232.832 173.44-1.984 16.512 1.856 47.104 14.272 61.824l7.616 8.96c43.712 51.52 88.96 104.704 88.96 182.336 0 114.24-71.68 207.232-159.808 207.232S275.584 663.168 275.584 548.928c0-67.904 37.76-116.544 74.304-163.648 7.104-9.216 14.08-18.24 20.672-27.2 14.336-19.584 19.904-43.008 15.68-66.112a87.488 87.488 0 0 0-36.928-56.768c-9.28-6.016-29.44-15.616-57.344-28.864-73.984-35.264-211.712-100.8-245.824-152.448-2.176-3.392-5.376-13.44-6.4-17.856zM743.04 556.736H1024v-39.68h-280.96zM804.736 403.904H1024v-39.68h-219.264zM870.912 254.464H1024v-39.744h-153.088z"  horiz-adv-x="1024" />

    
    <glyph glyph-name="weixinsousuoicon" unicode="&#58938;" d="M697.9 247.8l259.9-259.9-50.6-50.6-259.9 259.9c-61.7-50.5-140.5-80.7-226.3-80.7-197.5 0-357.6 160.1-357.6 357.6S223.5 831.8 421 831.8s357.6-160.1 357.6-357.6c0-85.9-30.3-164.8-80.7-226.4zM421 188c158 0 286.1 128.1 286.1 286.1S579 760.2 421 760.2s-286.1-128-286.1-286.1S263 188 421 188z"  horiz-adv-x="1024" />

    
    <glyph glyph-name="weixinpengyouquan" unicode="&#58985;" d="M512.719823 896c-19.53806 0-38.870456-1.233983-57.58586-3.496284-46.480016-5.347258-90.69773-16.864431-132.44748-33.728862 0 0 344.281181-340.579233 353.330388-353.330387V868.85238c-10.283189 3.496284-20.772043 6.581241-31.46656 9.460534C602.800562 889.830086 558.582848 896 512.719823 896zM872.425788 747.922073c-13.57381 13.57381-28.175939 26.324965-43.189395 38.459128-35.785499 28.381603-75.272946 52.032938-117.434023 69.925688 0 0 2.467965-484.132557 0-499.557341l257.079735 256.874071c-4.730267 9.871862-9.871862 19.332396-15.424784 28.792931-22.006025 37.636473-48.742318 73.216308-81.031533 105.505523zM985.129544 573.107853S644.550311 229.032336 631.799156 219.777465h363.20225c3.496284 10.283189 6.786905 20.772043 9.460534 31.260896 11.311508 42.161077 17.481422 86.378791 17.481422 131.830488 0 19.53806-1.233983 38.664792-3.496284 57.585861-4.730267 45.657361-16.041775 90.286403-33.317534 132.653143zM479.813617 181.524001l257.079735-256.874071c9.666198 4.935931 19.332396 10.077526 28.79293 15.424784 38.664792 22.211689 74.244627 49.359309 105.711187 80.825868 13.779474 13.779474 26.324965 28.381603 38.459129 43.189396 28.381603 35.785499 52.032938 75.272946 69.925688 117.434023-0.205664 0.205664-484.338221-2.467965-499.968669 0zM348.188793 262.349869v-363.202249c10.283189-3.496284 20.772043-6.786905 31.260896-9.460534 42.161077-11.311508 86.378791-17.481422 131.830488-17.481422 19.53806 0 38.664792 1.233983 57.58586 3.496284 46.480016 5.141595 90.69773 16.864431 132.44748 33.728861 0.205664-0.411328-344.075517 340.167905-353.124724 352.91906zM311.991966 413.718417L55.117895 156.844346c4.730267-9.871862 10.077526-19.332396 15.424784-28.79293 22.211689-38.664792 49.359309-74.244627 80.825869-105.711187 13.57381-13.57381 28.175939-26.324965 43.189395-38.459128 36.608154-28.998594 75.889938-52.238602 117.434023-69.925688 0 0.205664-2.673629 484.338221 0 499.763004zM19.332396 516.550311C8.020888 474.389235 1.850974 430.17152 1.850974 384.719823c0-19.53806 1.233983-38.870456 3.496284-57.58586 5.141595-45.451697 16.453103-90.080739 33.728862-132.44748 0 0 340.579233 344.075517 353.330387 353.330388H28.998594c-3.701948-10.488853-6.786905-20.977706-9.666198-31.46656zM255.845752 825.662985C217.18096 803.451295 181.601125 776.303675 150.134565 744.837116c-13.985138-13.779474-26.530629-28.381603-38.459128-43.189396-28.587267-35.785499-52.032938-75.272946-69.925688-117.434022 0 0 484.338221 2.467965 499.763005 0.205663L284.844346 841.087769c-9.871862-4.730267-19.53806-9.871862-28.998594-15.424784z"  horiz-adv-x="1024" />

    
    <glyph glyph-name="wx_biaoqing" unicode="&#58891;" d="M760.296 635.687C693.44 702.545 604.55 739.365 510.004 739.365c-94.546 0-183.434-36.82-250.29-103.678-66.856-66.857-103.676-155.75-103.676-250.302 0-94.547 36.82-183.435 103.677-250.29C326.57 68.237 415.459 31.42 510.004 31.42c94.546 0 183.435 36.818 250.292 103.674s103.676 155.744 103.676 250.29c-0.001 94.553-36.82 183.446-103.676 250.303zM510.003 43.451c-188.543 0-341.934 153.39-341.934 341.934 0 188.55 153.39 341.949 341.934 341.949 188.544 0 341.935-153.398 341.935-341.95 0-188.543-153.39-341.933-341.935-341.933zM385.204 479.072c27.495 0 49.785 22.279 49.785 49.779 0 27.514-22.29 49.793-49.785 49.793-27.509 0-49.799-22.278-49.799-49.793 0-27.501 22.29-49.779 49.799-49.779zM623.243 479.072c27.494 0 49.783 22.279 49.783 49.779 0 27.514-22.289 49.793-49.783 49.793-27.51 0-49.8-22.278-49.8-49.793 0-27.501 22.29-49.779 49.8-49.779zM510.003 192.14c113.968 0 207.734 86.247 219.731 197.029H290.273c11.998-110.782 105.765-197.03 219.73-197.03z"  horiz-adv-x="1024" />

    
    <glyph glyph-name="weixinqianbao" unicode="&#58892;" d="M1365.111158 8.851858c0-19.111481-3.242126-36.857857-9.726379-53.409765-12.456591-32.591901-37.711048-58.870188-69.961673-72.862523-16.039993-6.996167-33.615731-10.57957-52.727213-10.57957H141.293794c-19.111481 0-37.028495 3.412765-54.092318 10.57957-16.722546 6.825529-32.079987 16.722546-45.048492 29.179137-12.968505 12.456591-23.377437 27.302116-30.885519 43.512748-7.508082 16.722546-11.432761 34.980837-11.262123 53.409765V759.148142c0 38.052325 13.309782 70.473588 39.758707 96.922513C66.383612 882.690218 98.804875 896 136.8572 896h1091.4021c38.052325 0 70.473588-13.309782 96.922512-39.929345C1351.801376 829.62173 1365.111158 797.200467 1365.111158 759.148142v-204.424596H1023.834704c-38.052325 0-70.473588-12.968505-96.922513-39.076154-26.619563-26.107649-39.758707-58.187635-39.758707-96.23996 1.023829-26.107649 6.484253-49.143809 16.551908-69.27912 8.019997-17.063823 21.329778-32.591901 39.758707-46.584236 18.599567-13.992335 45.389768-20.988502 80.541243-20.988502h341.276454l-0.170638-273.703716zM956.261966 419.407432c0 19.111481 6.484253 35.151475 19.623396 48.11998 12.627229 12.797867 30.032328 19.964673 48.11998 19.623396 19.111481 0 34.980837-6.484253 48.11998-19.623396 13.139143-12.968505 19.623396-29.008499 19.623396-48.11998s-6.484253-35.322113-19.623396-48.973171c-12.456591-13.309782-29.86169-20.647225-48.11998-20.305949-19.111481 0-35.151475 6.825529-48.11998 20.305949-12.968505 13.139143-19.964673 30.714881-19.623396 48.973171z m0 0"  horiz-adv-x="1365" />

    
    <glyph glyph-name="erweima" unicode="&#58893;" d="M62.996776 411.938306l423.162696 0L486.159472 835.099978 62.996776 835.099978 62.996776 411.938306zM168.788218 729.30956l211.580836 0 0-211.580836L168.788218 517.728724 168.788218 729.30956zM539.055193 835.099978l0-423.162696 423.162696 0L962.217888 835.099978 539.055193 835.099978zM856.426447 517.728724L644.845611 517.728724 644.845611 729.30956l211.580836 0L856.426447 517.728724zM221.682915 570.623421l105.790418 0L327.473333 676.414863 221.682915 676.414863 221.682915 570.623421zM62.996776-64.12011099999995l423.162696 0L486.159472 359.04258500000003 62.996776 359.04258500000003 62.996776-64.12011099999995zM168.788218 253.252167l211.580836 0 0-211.580836L168.788218 41.67133100000001 168.788218 253.252167zM803.531749 676.414863L697.740308 676.414863l0-105.790418 105.790418 0L803.530726 676.414863zM539.055193-64.12011099999995l105.790418 0L644.845611 41.67030799999998 539.055193 41.67030799999998 539.055193-64.12011099999995zM644.845611 253.252167l0-211.580836 105.790418 0L750.636029 253.252167 644.845611 253.252167zM856.426447 41.67030799999998L750.636029 41.67030799999998 750.636029-64.12011099999995l211.580836 0L962.216865 147.46174900000005 856.426447 147.46174900000005 856.426447 41.67030799999998zM856.426447 253.252167l105.790418 0L962.216865 359.04258500000003 856.426447 359.04258500000003 856.426447 253.252167zM539.055193 359.04258500000003l0-105.790418 105.790418 0L644.845611 359.04258500000003 539.055193 359.04258500000003zM221.682915 94.56602799999996l105.790418 0L327.473333 200.356446 221.682915 200.356446 221.682915 94.56602799999996z"  horiz-adv-x="1024" />

    
    <glyph glyph-name="yuyin" unicode="&#59274;" d="M512 272c81.952 0 148.368 75.2 148.368 168v224C660.368 756.768 593.952 832 512 832s-148.368-75.232-148.368-168v-224C363.632 347.2 430.08 272 512 272z m272 153.696v0.336c0 23.2-16.624 42-37.088 42-20.48 0-37.088-18.8-37.088-42-0.048-123.712-88.576-223.952-197.824-224-109.248 0.048-197.76 100.288-197.824 224 0 23.2-16.592 42-37.088 42-20.496 0-37.088-18.8-37.088-42v-0.336c0-155.744 102.304-284.128 234.912-304.528v-101.168h-123.632c-20.512 0-37.104-18.816-37.104-42S330.768-64 351.28-64h321.44c20.48 0 37.104 18.816 37.104 42s-16.624 42-37.104 42h-123.632v101.168C681.728 141.568 784 269.968 784 425.696z"  horiz-adv-x="1024" />

    
    <glyph glyph-name="saoyisao" unicode="&#58894;" d="M489.569524 561.980952h211.626666c30.72 0 55.588571 24.868571 55.588572 55.588572v22.430476c0 30.72-24.868571 55.588571-55.588572 55.588571h-211.626666C489.569524 805.790476 399.36 896 289.158095 896H200.411429C90.209524 896 0 805.790476 0 695.588571l27.794286-315.001904v-1.950477l1.462857-8.777142c0-0.487619 0.487619-0.975238 0.487619-1.462858 0.487619-1.950476 1.462857-3.900952 1.950476-6.339047 0-0.487619 0.487619-0.975238 0.487619-1.950476 0.975238-2.438095 1.950476-4.87619 3.413333-6.826667v-0.487619c0.975238-1.950476 1.950476-3.413333 3.413334-5.36381 0-0.487619 0.487619-0.487619 0.487619-0.975238 0.975238-1.462857 1.950476-2.925714 3.413333-4.388571l0.975238-0.975238c0.975238-1.462857 2.438095-2.438095 3.413334-3.900953l0.975238-0.975238c0.975238-0.975238 2.438095-2.438095 3.900952-3.413333 0.487619-0.487619 0.975238-0.487619 1.462857-0.975238 1.462857-0.975238 2.438095-1.950476 3.900953-2.925714 0.487619-0.487619 0.975238-0.487619 1.462857-0.975238 1.462857-0.975238 2.438095-1.462857 3.900952-2.438096 0.487619-0.487619 0.975238-0.487619 1.462857-0.975238 1.462857-0.975238 2.925714-1.462857 4.388572-1.950476 0.487619-0.487619 0.975238-0.487619 1.950476-0.975238l4.388571-1.462857c0.487619 0 0.975238-0.487619 1.950477-0.487619 1.462857-0.487619 2.925714-0.975238 4.87619-0.975238 0.487619 0 0.975238-0.487619 1.950476-0.487619 1.950476-0.487619 3.413333-0.487619 5.36381-0.975239h1.462857c2.438095 0 4.388571-0.487619 6.826667-0.487619 38.521905 0 69.729524 31.207619 69.729523 69.729524V528.822857c0 18.529524 15.11619 33.158095 33.158096 33.158095h289.158095zM996.205714 386.925714v1.950476l-1.462857 8.777143c0 0.487619-0.487619 0.975238-0.487619 1.462857-0.487619 1.950476-1.462857 3.900952-1.950476 6.339048 0 0.487619-0.487619 0.975238-0.487619 1.950476-0.975238 2.438095-1.950476 4.87619-3.413333 6.826667v0.487619c-0.975238 1.950476-1.950476 3.413333-3.413334 5.36381 0 0.487619-0.487619 0.487619-0.487619 0.975238-0.975238 1.462857-1.950476 2.925714-3.413333 4.388571l-0.975238 0.975238c-0.975238 1.462857-2.438095 2.438095-3.413334 3.900953l-0.975238 0.975238c-0.975238 0.975238-2.438095 2.438095-3.900952 3.413333-0.487619 0.487619-0.975238 0.487619-1.462857 0.975238-1.462857 0.975238-2.438095 1.950476-3.900953 2.925714-0.487619 0.487619-0.975238 0.487619-1.462857 0.975238-1.462857 0.975238-2.438095 1.462857-3.900952 2.438096-0.487619 0.487619-0.975238 0.487619-1.462857 0.975238-1.462857 0.975238-2.925714 1.462857-4.388572 1.950476-0.487619 0.487619-0.975238 0.487619-1.950476 0.975238l-4.388571 1.462857c-0.487619 0-0.975238 0.487619-1.950477 0.487619-1.462857 0.487619-2.925714 0.975238-4.87619 0.975238-0.487619 0-0.975238 0.487619-1.950476 0.487619-1.950476 0.487619-3.413333 0.487619-5.36381 0.975238h-1.462857c-2.438095 0-4.388571 0.487619-6.826667 0.48762-38.521905 0-69.729524-31.207619-69.729523-69.729524v-141.897143c0-18.529524-15.11619-33.158095-33.158096-33.158095H322.80381c-30.72 0-55.588571-24.868571-55.588572-55.588572v-22.430476c0-30.72 24.868571-55.588571 55.588572-55.588571h211.626666c0-110.201905 90.209524-200.411429 200.411429-200.411429H824.07619c110.201905 0 200.411429 90.209524 200.411429 200.411429l-28.281905 314.514285z"  horiz-adv-x="1024" />

    
    <glyph glyph-name="gouwu1" unicode="&#58897;" d="M527.872 328.704m-30.72 0a30.72 30.72 0 1 1 61.44 0 30.72 30.72 0 1 1-61.44 0ZM921.6-128H102.4c-28.16 0-51.2 23.04-51.2 51.2V844.8C51.2 872.96 74.24 896 102.4 896h819.2c28.16 0 51.2-23.04 51.2-51.2v-921.6c0-28.16-23.04-51.2-51.2-51.2zM256 640m-51.2 0a51.2 51.2 0 1 1 102.4 0 51.2 51.2 0 1 1-102.4 0ZM768 640m-51.2 0a51.2 51.2 0 1 1 102.4 0 51.2 51.2 0 1 1-102.4 0ZM512 153.6c-155.136 0-281.6 126.464-281.6 281.6V640h51.2v-204.8c0-126.976 103.424-230.4 230.4-230.4s230.4 103.424 230.4 230.4V640h51.2v-204.8c0-155.136-126.464-281.6-281.6-281.6z"  horiz-adv-x="1024" />

    
    <glyph glyph-name="weixinsousuo" unicode="&#58946;" d="M975.503-27.062L833.744 114.697c77.309 82.849 125.042 193.659 125.042 315.667C958.786 686.036 750.822 894 495.148 894 239.501 894 31.513 686.036 31.513 430.364c0-91.915 26.959-180.888 78.004-257.225 10.667-16.021 32.248-20.219 48.22-9.601 15.973 10.666 20.262 32.246 9.596 48.219-43.345 64.888-66.274 140.46-66.274 218.606 0 217.307 176.783 394.09 394.089 394.09 217.309 0 394.091-176.783 394.091-394.09 0-217.308-176.782-394.09-394.091-394.09-78.422 0-154.18 23.039-219.135 66.599-15.929 10.643-37.533 6.444-48.267-9.504-10.686-15.948-6.421-37.553 9.507-48.263 76.454-51.278 165.631-78.379 257.895-78.379 91.8 0 177.227 27.169 249.297 73.369l149.108-149.107a57.801 57.801 0 0 1 40.962-16.989c14.835 0 29.674 5.681 40.987 16.989 22.646 22.627 22.646 59.305 0.001 81.95zM254.915 498.855C280.767 599.09 363.848 672.184 466.59 685.048c19.055 2.389 32.572 19.775 30.184 38.832-2.388 19.056-19.912 32.592-38.832 30.185-131.233-16.439-237.335-109.814-270.347-237.871-4.795-18.594 6.378-37.553 24.991-42.329a33.872 33.872 0 0 1 8.696-1.113c15.482 0 29.601 10.408 33.633 26.103z m0 0"  horiz-adv-x="1024" />

    
    <glyph glyph-name="weixin-gengduo-gai" unicode="&#58928;" d="M125.610667 416.085333m-105.130667 0a105.130667 105.130667 0 1 1 210.261333 0 105.130667 105.130667 0 1 1-210.261333 0ZM898.389333 416.085333m-105.130666 0a105.130667 105.130667 0 1 1 210.261333 0 105.130667 105.130667 0 1 1-210.261333 0ZM512 416.085333m-163.84 0a163.84 163.84 0 1 1 327.68 0 163.84 163.84 0 1 1-327.68 0Z"  horiz-adv-x="1024" />

    
    <glyph glyph-name="piaoliuping" unicode="&#58947;" d="M835.64170347 593.73708693c-7.475472-13.25547627-24.19895147-17.8024128-37.37736-10.3269408l-86.931264-150.28010986c-12.0994752-21.270416-11.48294187-47.78136853 0.53946666-69.66831787 34.52589227-59.2643104 37.37736107-134.6355648 0.53946774-199.1404128L641.74182827 51.34149013000001c-69.05178347 7.475472-132.94009707 23.58241707-188.73640534 47.78136747-2.31200213 1.15600107-4.00746987 1.69546773-6.31947093 2.31200213-66.7397824 28.745888-145.57904 47.16483413-231.35430293 50.0933696-10.3269408 1.15600107-20.73094827 1.15600107-31.05788907 1.15600107-4.00746987 0-7.475472 0-11.48294187-0.53946667l-3.46800213 2.31200107 144.34597227 240.216976c39.68936213 69.05178347 113.9816832 104.7336768 188.1969376 99.57020693 26.51095253-2.31200213 52.40537173 10.3269408 65.58378133 33.3698912l81.6907264 142.18810347c-12.63894293 7.475472-17.26294613 24.19895147-9.78747413 37.37736107 7.475472 13.25547627 24.19895147 17.26294613 37.37736106 9.78747413L825.31476267 631.114448c13.25547627-7.475472 17.8024128-24.19895147 10.3269408-37.37736107zM789.47873707 672.49927787L734.22189653 704.481968c-9.0168064 5.2405376-12.0994752 16.7234784-6.85893866 25.74028587l36.22136 62.73231253c5.2405376 9.0168064 16.7234784 12.0994752 25.7402848 6.85893867l85.77526293-49.47683627c12.02240853-6.93600533 12.63894293-24.1218848 1.15600107-31.90562347l-66.66271574-45.16109973c-6.08827093-4.08453653-13.79494293-4.31573653-20.11441386-0.77066773zM975.36367253 53.96175787000004c-85.46699627-70.82431893-217.6364256-115.67715093-363.75493333-115.67715094-10.0957408 0-20.26854827 0-30.364288 1.15600107-1.69546773 0-3.9304032 0-5.62587093 0.53946667-49.47683627 1.69546773-96.71873707 9.2480064-140.03023574 21.270416-41.61603093 10.9434752-79.84112533 26.51095253-114.67528426 44.31336533-3.39093547 2.31200213-7.86080533 4.6240032-12.9472096 6.93600533-75.91072213 40.8453632-173.16892693 65.58378133-277.7484704 67.35631574 37.68562773 8.63147307 77.0667232 13.25547627 117.52675306 14.950944 9.0168064 0.53946667 17.95654613 0.53946667 26.97335254 0.53946773 10.0957408 0 20.26854827 0 30.36428906-1.15600107 2.23493547 0 3.9304032 0 6.1653376-0.53946666 81.53659307-3.46800213 156.29131413-21.270416 219.87136107-49.47683627 2.23493547-0.53946667 3.9304032-1.15600107 6.16533867-2.31200213 50.63283733-22.426416 107.97047893-37.9938944 169.7779904-46.00883414 28.1293536-3.46800213 56.79817493-5.16347093 86.62299733-5.16346986 53.94670613 0 106.2750112 6.31947093 155.21237973 17.8024128 46.00883413 10.9434752 88.78086507 26.51095253 126.4664928 45.4693664z"  horiz-adv-x="1024" />

    
    <glyph glyph-name="souyisou" unicode="&#58951;" d="M418.689057 547.4853123299999l-3.540253 1.228251c-20.519015 7.008255-32.584774 28.177521-28.105271 49.419036L425.697312 782.22573433c8.597756 40.82128 50.502787 65.314048 90.240316 52.670289 41.61603-13.22176 61.268045-60.762295 41.25478-99.488323L470.709095 568.36557733c-9.753757-18.857264-31.862273-27.74402-52.020038-20.880265zM507.628872 460.35174833l-0.21675 5.852255c-0.867001 21.964016 14.955761 41.03803 36.703027 44.144782l339.358498 49.274536c41.688281 6.069004 80.197559-23.553517 85.038312-65.386298 5.274254-45.156283-30.634022-84.532562-76.151555-83.448811l-342.898752 8.381006c-22.614267 0.50575-40.96578 18.568264-41.83278 41.18253zM689.915755-26.68585767000002L457.848585 306.31463533c-13.29401 19.074014-8.959007 45.373033 9.826008 59.100544l3.757002 2.745502c17.556763 12.860509 41.977281 10.548508 56.860792-5.346504l276.211952-297.164468c29.550272-31.790023 25.359769-82.00381-8.959006-108.519579-33.379524-25.721019-81.49806-18.351513-105.629578 16.184012zM207.285402-14.25884867000002c-38.870528 16.184012-56.138291 61.773795-37.570028 99.560573l129.761095 265.085444c9.970507 20.302265 33.885275 29.405772 54.837791 20.880265 19.868765-8.092006 30.634022-29.622522 25.287518-50.430537l-73.550554-285.893459c-11.054258-42.988781-57.727792-66.253299-98.765822-49.202286zM283.725958 441.92798533l-156.349115-2.456502c-39.231779-0.578-69.865801 33.885275-64.591547 72.755803 5.129754 37.859028 42.049531 62.857546 79.113808 53.60954l151.725111-37.931278c20.880265-5.202004 34.680025-25.070768 32.223524-46.456784l-0.1445-1.445001c-2.384252-21.458266-20.374515-37.786778-41.977281-38.075778z"  horiz-adv-x="1024" />

    
    <glyph glyph-name="xiaochengxu" unicode="&#58957;" d="M682.32611325 794.60946828c-133.54519159 0-242.03316166-100.71883144-242.03316166-224.74507778 0-4.899457 0.5599375-9.23897553 0.5599375-14.06844034h-0.5599375v-327.07373147c0-63.90291369-55.99379069-115.90714775-125.42609203-115.90714775-68.80237069 0-125.35609984 52.00423309-125.35609984 115.90714775 0 52.49417938 37.30586306 96.37931291 88.05023678 111.00769075 26.24708969 4.899457 46.05489328 27.08699594 46.05489328 53.05411687 0 30.30663947-26.24708969 54.66393816-57.74359731 54.66393816-2.30974412 0-4.68948044 0-6.9992236-0.5599375-5.24941794-1.04988378-10.49883587-2.16975975-15.74825381-3.77958103C144.57574241 415.04155744 72.90369009 329.44105012 72.90369009 228.72221868999998c0-123.46630884 108.48797006-224.18514028 242.03316166-224.18514125s242.03316166 100.71883144 242.03316166 224.18514125V378.22564065999995c0.5599375-0.5599375 1.18986816-0.5599375 1.74980565-1.04988378V553.06625291c-0.5599375 2.16975975-1.18986816 4.899457-1.18986815 7.06921578-0.5599375 3.21964256-0.5599375 6.50927828-0.5599375 9.72892181 0 64.46285216 55.99379069 116.39709306 125.42609203 116.39709306 68.80237069 0 125.35609984-52.00423309 125.35609984-116.39709306 0-50.88435713-36.18598709-94.76949163-85.74049266-110.44775325-4.05954978-0.5599375-8.18909175-1.60982128-12.24864153-3.21964256-20.43773328-8.11909956-34.43618144-27.64693441-34.4361824-50.39441278 0-29.81669416 25.05722153-54.66393816 56.55372915-54.66393816 1.74980566 0 3.49961228 0 5.24941794 0.55993847 4.05954978 0.5599375 7.55916206 1.04988378 11.05877434 2.16975878 2.30974412 0.5599375 4.68948044 1.04988378 6.9992236 2.16975975 1.74980566 0.5599375 2.93967381 1.04988378 4.68947947 1.60982128 0.5599375 0 0.5599375 0 1.18986815 0.5599375 95.04946037 29.81669416 163.29189259 113.737388 163.29189357 211.72652316 0 123.95625512-108.48797006 224.67508656-242.03316166 224.67508559z"  horiz-adv-x="1024" />

    
    <glyph glyph-name="gongzhonghaotubiao" unicode="&#58961;" d="M0 896h1024v-1024H0zM651.117477 278.840048c-0.722501 0.21675-2.023001 0.50575-3.395753 0.794751-6.141254 1.661751-12.282509 3.323502-17.845763 5.274253h-0.07225c-35.258026 12.354759-57.149792 32.729274-57.149792 53.176039 0 8.308756 3.395752 16.111762 10.765258 24.492768 2.890002 2.745502 5.635504 5.563254 8.381006 8.597757 24.131518 27.52727 38.003528 66.759049 38.003528 107.652578 0 80.414309-52.309038 145.872857-116.539335 145.872857S396.652791 559.387003 396.652791 478.972695c0-45.734283 16.473012-87.639314 45.228533-115.166585 0.07225-0.07225 0.07225-0.07225 0.07225-0.1445 5.924504-5.780004 13.00501-15.028011 13.005009-26.371269 0-19.724264-22.036266-39.304029-57.511042-51.225288-0.1445 0-0.36125-0.07225-0.50575-0.1445-5.129754-1.300501-9.609257-2.601002-16.328512-4.768503-78.969308-25.432019-126.220842-71.310802-126.509843-122.75284-0.07225-8.308756 6.430255-15.244761 14.811261-15.244761h486.387356c8.236506 0 14.811261 6.863755 14.811261 15.172511-0.36125 49.274536-44.578283 94.286319-118.995837 120.513088zM510.302124 173.427221l-40.60453 52.525788L510.302124 337.507091l44.000282-111.554082z"  horiz-adv-x="1024" />

    
    <glyph glyph-name="AppleWatchStyle" unicode="&#59003;" d="M788.632836 243.391045c6.113433 35.152239-12.226866 67.247761-42.79403 73.361194-30.567164 6.113433-61.134328-16.81194-67.247761-51.964179-6.113433-35.152239 12.226866-67.247761 42.79403-73.361194 30.567164-6.113433 61.134328 16.81194 67.247761 51.964179z m-103.928358 19.868656c6.113433 32.095522 33.623881 51.964179 61.134328 47.379105s44.322388-35.152239 38.208955-67.247761-33.623881-51.964179-61.134328-47.379105-44.322388 36.680597-38.208955 67.247761zM435.58209 124.179104H191.044776C136.023881 124.179104 91.701493 168.501493 91.701493 223.522388V590.328358c0 55.020896 44.322388 99.343284 99.343283 99.343284h244.537314c55.020896 0 99.343284-44.322388 99.343283-99.343284v-7.641791c18.340299-13.755224 30.567164-42.79403 30.567164-68.776119 0-25.98209-12.226866-53.492537-30.567164-68.77612V223.522388c0-55.020896-44.322388-99.343284-99.343283-99.343284z m-244.537314 550.208956c-45.850746 0-84.059701-38.208955-84.059701-84.059702v-366.80597c0-45.850746 38.208955-84.059701 84.059701-84.059701h244.537314c45.850746 0 84.059701 38.208955 84.059701 84.059701V452.776119l3.056716 1.528359c15.283582 10.698507 27.510448 36.680597 27.510448 58.077612 0 22.925373-12.226866 48.907463-27.510448 58.077611l-3.056716 4.585075v15.283582c0 45.850746-38.208955 84.059701-84.059701 84.059702H191.044776zM560.907463 513.910448c0 35.152239-25.98209 64.191045-56.549254 64.191045s-56.549254-29.038806-56.549254-64.191045 25.98209-64.191045 56.549254-64.191045 56.549254 29.038806 56.549254 64.191045z m-106.985075 0c0 32.095522 22.925373 58.077612 50.435821 58.077612s50.435821-25.98209 50.435821-58.077612-22.925373-58.077612-50.435821-58.077612-50.435821 25.98209-50.435821 58.077612zM478.376119 521.552239c0-30.567164 21.397015-56.549254 48.907463-56.549254 7.641791 0 13.755224 1.528358 19.868657 4.585075 1.528358 1.528358 1.528358 3.056716 1.528358 4.585074s-3.056716 1.528358-4.585075 1.528359c-4.585075-3.056716-10.698507-4.585075-16.81194-4.585075-22.925373 0-42.79403 22.925373-42.79403 50.435821 0 22.925373 12.226866 42.79403 30.567164 48.907462 1.528358 0 3.056716 1.528358 1.528359 4.585075s-1.528358 3.056716-4.585075 1.528358c-18.340299-7.641791-33.623881-29.038806-33.623881-55.020895zM487.546269 231.164179c0-9.170149 7.641791-16.81194 16.81194-16.81194 9.170149 0 16.81194 7.641791 16.81194 16.81194v137.552239c0 9.170149-7.641791 16.81194-16.81194 16.81194-9.170149 0-16.81194-7.641791-16.81194-16.81194v-137.552239zM504.358209 391.641791c12.226866 0 22.925373-10.698507 22.925373-22.925373v-137.552239c0-12.226866-10.698507-22.925373-22.925373-22.925373s-22.925373 10.698507-22.925373 22.925373v137.552239c0 12.226866 10.698507 22.925373 22.925373 22.925373zM105.456716 223.522388c0-30.567164 24.453731-55.020896 55.020896-55.020895h229.253731c30.567164 0 55.020896 24.453731 55.020896 55.020895V590.328358c0 30.567164-24.453731 55.020896-55.020896 55.020896H160.477612c-30.567164 0-55.020896-24.453731-55.020896-55.020896v-366.80597zM160.477612 651.462687h229.253731c33.623881 0 61.134328-27.510448 61.134329-61.134329v-366.80597c0-33.623881-27.510448-61.134328-61.134329-61.134328H160.477612c-33.623881 0-61.134328 27.510448-61.134328 61.134328V590.328358c0 33.623881 27.510448 61.134328 61.134328 61.134329zM168.119403 675.916418c9.170149 6.113433 18.340299 13.755224 25.98209 21.397015l3.056716 3.056716c6.113433 6.113433 41.265672 45.850746 51.964179 56.549254 16.81194 16.81194 32.095522 30.567164 45.850746 42.79403 29.038806 22.925373 58.077612 39.737313 84.059702 53.492537 9.170149 4.585075 16.81194 7.641791 24.453731 10.698508 4.585075 1.528358 6.113433 3.056716 7.641791 3.056716 22.925373 6.113433 61.134328 13.755224 85.58806 13.755224h160.477612c24.453731 0 59.60597-10.698507 79.474627-24.453731l9.170149-7.641791 3.056716 12.226865c-1.528358-3.056716-1.528358-3.056716-3.056716-4.585074-3.056716-3.056716-4.585075-1.528358-6.113433-1.528359 1.528358-1.528358 4.585075-3.056716 7.641791-6.113432 10.698507-9.170149 30.567164-24.453731 58.077612-50.435821 29.038806-25.98209 53.492537-53.492537 70.304478-79.474627 6.113433-9.170149 10.698507-16.81194 15.283582-24.453732 3.056716-4.585075 3.056716-7.641791 4.585074-9.170149 1.528358-1.528358 3.056716-6.113433 4.585075-10.698507 3.056716-7.641791 7.641791-15.283582 10.698508-24.453732 6.113433-18.340299 12.226866-36.680597 13.755223-53.492537 0-6.113433 1.528358-10.698507 1.528359-16.81194 0-19.868657-6.113433-42.79403-15.283582-65.719403-3.056716-7.641791-6.113433-15.283582-10.698508-21.397015-1.528358-4.585075-3.056716-6.113433-4.585075-7.641791l-1.528358-1.528358c0-1.528358 0-4.585075-1.528358-9.17015 0-7.641791-1.528358-15.283582-3.056716-24.453731-3.056716-25.98209-6.113433-51.964179-9.17015-76.41791-1.528358-18.340299-4.585075-35.152239-6.113432-48.907463-1.528358-12.226866-3.056716-22.925373-4.585075-30.567164-1.528358-9.170149-4.585075-21.397015-6.113433-33.623881-1.528358-6.113433-3.056716-12.226866-4.585075-19.868657-3.056716-12.226866-6.113433-25.98209-10.698507-38.208955-1.528358-4.585075-3.056716-7.641791-3.056716-12.226866 0-1.528358-1.528358-3.056716-1.528359-4.585074-1.528358-7.641791-7.641791-16.81194-12.226865-21.397015-1.528358-1.528358-3.056716-4.585075-6.113433-6.113433-6.113433-4.585075-12.226866-9.170149-19.868657-13.755224-25.98209-15.283582-56.549254-22.925373-94.758209-19.868657-32.095522 3.056716-53.492537 12.226866-64.191045 27.510448-7.641791 9.170149-10.698507 19.868657-10.698507 25.98209-1.528358 9.170149-1.528358 21.397015 0 29.038806 0 0 0 1.528358 1.528358 4.585074 1.528358 4.585075 1.528358 9.170149 3.056717 15.283582 3.056716 18.340299 6.113433 41.265672 9.170149 71.832836 3.056716 30.567164 4.585075 62.662687 6.113433 94.758209 0 10.698507 1.528358 21.397015 1.528358 30.567164v12.226866l-1.528358 3.056717s-1.528358 1.528358-1.528359 4.585074c-1.528358 3.056716-3.056716 7.641791-6.113432 12.226866-6.113433 12.226866-10.698507 25.98209-16.811941 38.208955-4.585075 10.698507-7.641791 19.868657-10.698507 29.038806-6.113433 18.340299-10.698507 35.152239-12.226866 47.379104-3.056716 24.453731-1.528358 48.907463 4.585075 71.832836 1.528358 6.113433 3.056716 10.698507 3.056716 13.755224 0 3.056716 1.528358 4.585075 1.528358 4.585075l1.528359 6.113433-1.528359 3.056716-68.776119 137.552239-13.755224-6.113433 68.77612-137.552239v6.113433c0-1.528358-1.528358-3.056716-1.528359-6.113433-1.528358-4.585075-3.056716-9.170149-4.585074-15.283582-6.113433-24.453731-7.641791-51.964179-4.585075-77.946269 1.528358-13.755224 6.113433-30.567164 12.226866-50.43582 3.056716-9.170149 7.641791-19.868657 10.698507-30.567165 6.113433-13.755224 10.698507-27.510448 16.811941-39.737313 1.528358-4.585075 4.585075-9.170149 6.113432-12.226866 1.528358-1.528358 1.528358-3.056716 1.528359-4.585074l1.528358 4.585074v-12.226865c0-9.170149 0-19.868657-1.528358-30.567165-1.528358-32.095522-3.056716-64.191045-6.113433-93.22985-3.056716-30.567164-6.113433-55.020896-9.17015-71.832836-1.528358-10.698507-3.056716-16.81194-3.056716-19.868657-1.528358-9.170149-3.056716-24.453731-1.528358-33.62388 0-9.170149 3.056716-21.397015 13.755224-35.152239 13.755224-18.340299 38.208955-30.567164 74.889552-33.623881 41.265672-3.056716 74.889552 4.585075 103.928358 21.397015 13.755224 9.170149 24.453731 16.81194 29.038806 22.925373 6.113433 6.113433 13.755224 18.340299 16.81194 27.510448 0 0 0 1.528358 1.528359 4.585075 1.528358 3.056716 1.528358 7.641791 3.056716 12.226865 3.056716 12.226866 7.641791 25.98209 10.698508 38.208956 1.528358 7.641791 3.056716 13.755224 4.585074 19.868656 3.056716 12.226866 4.585075 24.453731 7.641791 33.623881 1.528358 9.170149 3.056716 19.868657 4.585075 32.095522 1.528358 13.755224 4.585075 30.567164 6.113433 48.907463 3.056716 24.453731 6.113433 50.435821 9.170149 76.41791 1.528358 9.170149 1.528358 16.81194 3.056716 24.453732 0 4.585075 1.528358 7.641791 1.528359 9.170149l-1.528359-3.056716c1.528358 1.528358 3.056716 4.585075 4.585075 9.170149 3.056716 7.641791 7.641791 15.283582 10.698507 22.925373 9.170149 24.453731 15.283582 48.907463 15.283583 71.832836 0 6.113433 0 12.226866-1.528359 18.340298-1.528358 18.340299-7.641791 36.680597-15.283582 56.549254-3.056716 9.170149-7.641791 18.340299-10.698507 25.98209-1.528358 4.585075-4.585075 7.641791-4.585075 10.698507 0 1.528358-1.528358 4.585075-4.585075 9.170149-4.585075 7.641791-9.170149 16.81194-15.283582 25.98209-18.340299 27.510448-42.79403 55.020896-73.361194 81.002985-61.134328 53.492537-71.832836 62.662687-79.474626 58.077612-1.528358 0-1.528358 0-1.528359-1.528358l7.641791-1.528359 4.585075 6.113433c-21.397015 15.283582-61.134328 27.510448-88.644776 27.510448H496.716418c-25.98209 0-67.247761-7.641791-91.701493-16.81194-1.528358 0-4.585075-1.528358-9.170149-3.056717-7.641791-3.056716-15.283582-6.113433-24.453731-10.698507-25.98209-12.226866-55.020896-30.567164-85.58806-55.020896-15.283582-12.226866-30.567164-25.98209-47.379104-44.322388-10.698507-12.226866-45.850746-50.435821-51.96418-56.549253l-1.528358-1.528359c-7.641791-7.641791-15.283582-13.755224-24.453731-19.868656-4.585075-3.056716-9.170149-6.113433-10.698508-7.641791l7.641792-13.755224c1.528358 3.056716 6.113433 4.585075 10.698507 9.170149zM495.18806 677.444776c-3.056716 9.170149-6.113433 18.340299-7.641791 29.038806-1.528358 22.925373 16.81194 58.077612 51.964179 93.229851 41.265672 42.79403 103.928358 65.719403 163.534328 73.361194l-1.528358 15.283582c-61.134328-9.170149-128.38209-33.623881-172.704478-79.474627-36.680597-38.208955-58.077612-76.41791-55.020895-105.456716 1.528358-12.226866 4.585075-22.925373 7.641791-32.095523 3.056716-7.641791 6.113433-13.755224 9.170149-16.81194l12.226866 9.170149c-1.528358 1.528358-4.585075 7.641791-7.641791 13.755224zM596.059701 718.710448c-1.528358 3.056716-4.585075 7.641791-6.113432 12.226865-4.585075 10.698507-9.170149 21.397015-9.17015 32.095523-1.528358 29.038806 18.340299 45.850746 70.304478 45.850746 53.492537 0 93.229851-13.755224 123.797015-35.152239 10.698507-7.641791 18.340299-15.283582 25.982089-24.453731 4.585075-4.585075 6.113433-9.170149 7.641792-10.698508 4.585075-7.641791 12.226866-18.340299 15.283582-25.982089l56.549253-111.570149c7.641791-13.755224 4.585075-35.152239-6.113432-45.850747-1.528358-3.056716-3.056716-4.585075-7.641792-7.641791s-9.170149-6.113433-16.81194-7.641791c-16.81194-1.528358-36.680597-3.056716-61.134328-1.528358-18.340299 0-39.737313 1.528358-59.60597 4.585075-9.170149 1.528358-18.340299 1.528358-27.510448 3.056716-4.585075 0-9.170149 1.528358-10.698508 1.528358-7.641791 1.528358-15.283582 7.641791-18.340298 13.755224l-70.304478 154.364179c-4.585075 0-4.585075 1.528358-6.113433 3.056717z m67.247762-162.00597c4.585075-9.170149 13.755224-16.81194 24.453731-18.340299 1.528358 0 6.113433 0 10.698507-1.528358 9.170149-1.528358 18.340299-1.528358 27.510448-3.056717 21.397015-1.528358 41.265672-3.056716 61.134329-4.585074 24.453731 0 45.850746 0 62.662686 1.528358 7.641791 1.528358 13.755224 4.585075 18.340299 9.170149 4.585075 3.056716 6.113433 6.113433 7.641791 9.17015 12.226866 12.226866 15.283582 36.680597 7.641791 51.964179L826.841791 712.597015c-3.056716 7.641791-10.698507 19.868657-15.283582 25.982089-1.528358 1.528358-3.056716 6.113433-7.641791 10.698508-7.641791 9.170149-15.283582 16.81194-27.510448 24.453731-30.567164 22.925373-73.361194 36.680597-126.853731 36.680597-55.020896 0-77.946269-19.868657-74.889552-53.492537 1.528358-10.698507 4.585075-21.397015 9.170149-33.623881 1.528358-4.585075 4.585075-9.170149 6.113433-12.226865 1.528358-3.056716 3.056716-4.585075 3.056716-4.585075l70.304478-149.779104zM151.307463 130.292537c3.056716-1.528358 6.113433-4.585075 9.170149-7.641791 9.170149-7.641791 19.868657-15.283582 27.510448-22.925373 7.641791-6.113433 13.755224-13.755224 18.340298-19.868657 6.113433-7.641791 29.038806-33.623881 32.095523-36.680597 13.755224-15.283582 24.453731-27.510448 36.680597-39.737313 35.152239-35.152239 68.776119-62.662687 110.041791-85.58806 65.719403-33.623881 134.495522-41.265672 233.838806-30.567164 81.002985 7.641791 174.232836 73.361194 220.083582 157.420896 18.340299 33.623881 33.623881 108.513433 47.379104 210.913432 6.113433 50.435821 12.226866 102.4 16.81194 155.892538 1.528358 18.340299 3.056716 36.680597 4.585075 51.964179 0 6.113433 0 10.698507 1.528358 13.755224v4.585074l-15.283582 1.528359v-4.585075c0-4.585075 0-9.170149-1.528358-13.755224-1.528358-15.283582-3.056716-32.095522-4.585075-51.964179-4.585075-53.492537-10.698507-105.456716-16.81194-155.892537-13.755224-102.4-29.038806-174.232836-45.850746-206.328359-42.79403-79.474627-131.438806-140.608955-207.856717-148.250746-97.814925-9.170149-163.534328-3.056716-224.668656 29.038806-39.737313 21.397015-73.361194 48.907463-106.985075 82.531343-12.226866 12.226866-22.925373 24.453731-35.152239 39.737314-3.056716 3.056716-24.453731 29.038806-32.095522 36.680597-6.113433 6.113433-12.226866 13.755224-19.868657 19.868657-9.170149 9.170149-19.868657 16.81194-29.038806 24.453731-3.056716 3.056716-6.113433 4.585075-9.170149 7.641791-1.528358 1.528358-3.056716 1.528358-3.056716 3.056716l-9.17015-12.226865c1.528358 0 1.528358-1.528358 3.056717-3.056717zM512 173.086567c0-9.170149-1.528358-18.340299-3.056716-27.510448-3.056716-10.698507-6.113433-19.868657-9.17015-25.982089 0 0-3.056716-4.585075-4.585074-7.641791-3.056716-4.585075-4.585075-7.641791-7.641791-10.698508-4.585075-6.113433-7.641791-13.755224-9.17015-19.868656-4.585075-12.226866-6.113433-21.397015-1.528358-30.567165 9.170149-24.453731 45.850746-70.304478 79.474627-94.758209 18.340299-13.755224 45.850746-21.397015 79.474627-24.453731 27.510448-3.056716 56.549254-3.056716 85.58806-1.528358 4.585075 0 7.641791 0 12.226865 1.528358h4.585075c4.585075 0 7.641791 4.585075 6.113433 9.170149 0 4.585075-4.585075 7.641791-9.170149 6.113433-3.056716 0-7.641791-1.528358-15.283583-1.528358-27.510448-1.528358-55.020896-1.528358-82.531343 1.528358-32.095522 3.056716-56.549254 10.698507-73.361194 21.397015-32.095522 22.925373-65.719403 65.719403-73.361194 88.644776-1.528358 4.585075-1.528358 10.698507 1.528358 19.868657 1.528358 6.113433 4.585075 10.698507 9.17015 16.81194 1.528358 3.056716 4.585075 7.641791 6.113432 10.698508 1.528358 1.528358 4.585075 6.113433 4.585075 7.641791 4.585075 7.641791 9.170149 18.340299 12.226866 30.567164 1.528358 9.170149 3.056716 19.868657 4.585074 29.038806v13.755224c0 4.585075-3.056716 7.641791-7.641791 7.641791s-9.170149-3.056716-9.170149-7.641791v-12.226866zM551.737313-11.844776c10.698507 6.113433 19.868657 15.283582 29.038806 24.453731 12.226866 12.226866 21.397015 25.98209 29.038806 39.737314 3.056716 6.113433 6.113433 12.226866 7.641791 18.340298 7.641791 18.340299 13.755224 38.208955 18.340299 58.077612 1.528358 6.113433 3.056716 13.755224 4.585075 18.340299 0 3.056716 1.528358 6.113433 1.528358 7.641791 0 4.585075-3.056716 7.641791-6.113433 9.170149-4.585075 0-7.641791-3.056716-9.170149-6.113433 0-1.528358 0-3.056716-1.528359-6.113433-1.528358-6.113433-1.528358-12.226866-3.056716-18.340298-4.585075-18.340299-10.698507-38.208955-16.81194-55.020896-3.056716-6.113433-4.585075-12.226866-7.641791-16.81194-6.113433-13.755224-15.283582-25.98209-25.98209-36.680597-9.170149-9.170149-18.340299-15.283582-27.510448-21.397015-6.113433-3.056716-9.170149-6.113433-12.226865-7.641791-3.056716-1.528358-4.585075-6.113433-3.056717-10.698508 1.528358-3.056716 6.113433-4.585075 10.698508-3.056716 1.528358-1.528358 6.113433 1.528358 12.226865 6.113433zM710.686567 24.835821c4.585075 10.698507 1.528358 22.925373-6.113433 25.982089-9.170149 4.585075-18.340299-1.528358-24.453731-12.226865-4.585075-10.698507-1.528358-22.925373 6.113433-25.98209 9.170149-4.585075 19.868657 1.528358 24.453731 12.226866z m-24.453731 10.698507c3.056716 7.641791 10.698507 12.226866 15.283582 9.17015 4.585075-1.528358 6.113433-10.698507 3.056716-18.340299s-10.698507-12.226866-15.283582-9.170149c-4.585075 3.056716-6.113433 10.698507-3.056716 18.340298zM622.041791-65.337313c6.113433-1.528358 13.755224 0 18.340299 4.585074 10.698507 10.698507 15.283582 21.397015 9.170149 27.510448s-16.81194 0-27.510448-9.170149c-3.056716-3.056716-6.113433-7.641791-9.170149-10.698508-1.528358-7.641791 3.056716-10.698507 9.170149-12.226865z m4.585075 16.81194c7.641791 7.641791 16.81194 12.226866 18.340298 9.170149 1.528358-1.528358-1.528358-10.698507-9.170149-18.340298-3.056716-3.056716-7.641791-4.585075-12.226866-3.056717-3.056716 0-4.585075 1.528358-4.585074 1.528358 1.528358 4.585075 4.585075 7.641791 7.641791 10.698508z"  horiz-adv-x="1024" />

    
    <glyph glyph-name="weixintubiao2" unicode="&#58964;" d="M418.610439 248.170523a38.122366 38.122366 0 0 0-50.755197 15.543179l-2.494584 5.532861-104.74056 231.612559a19.956675 19.956675 0 0 0-1.822965 8.155372 19.18911 19.18911 0 0 0 5.628805 13.65625 19.18911 19.18911 0 0 0 13.560305 5.69277 18.83731 18.83731 0 0 0 11.481484-3.869804l123.641833-88.429816a56.607875 56.607875 0 0 1 51.170961-5.884661l581.430038 260.65208a613.795671 613.795671 0 0 1-470.421036 204.683842C257.677768 895.41921 0 678.902083 0 412.109488a455.837312 455.837312 0 0 1 198.831163-365.104803 38.762003 38.762003 0 0 0 15.990925-31.598068 46.949356 46.949356 0 0 0-2.014856-12.632831l-25.969263-97.416716a59.358314 59.358314 0 0 1-3.198185-14.135978 19.18911 19.18911 0 0 1 19.189111-19.18911 21.683695 21.683695 0 0 1 11.129684 3.613949l125.976508 73.206455a59.80606 59.80606 0 0 0 30.574649 8.922937 57.279494 57.279494 0 0 0 16.918399-2.59053 676.288206 676.288206 0 0 1 188.181207-26.480972c317.803646 0 575.481414 216.261272 575.481414 482.925939a420.337458 420.337458 0 0 1-65.562793 223.872952l-662.663938-385.381296-4.189623-2.462602z"  horiz-adv-x="1151" />

    
    <glyph glyph-name="kanyikan" unicode="&#58895;" d="M173.568 372.224c-14.848 6.656-26.624-1.536-26.624-17.408v-152.576c0-15.872 11.264-35.328 25.088-43.52l132.096-76.288c13.824-8.192 26.624-1.536 28.16 14.336l17.92 166.912c1.536 15.872-8.704 34.304-23.552 40.448l-153.088 68.096zM332.288 671.232c-1.536 15.872-14.336 22.528-28.16 14.336l-132.096-76.288c-13.824-8.192-25.088-27.648-25.088-43.52v-152.576c0-15.872 11.776-23.552 26.624-17.408l153.6 67.584c14.848 6.656 25.088 24.576 23.552 40.448l-18.432 167.424zM850.432 395.776c14.848-6.656 26.624 1.536 26.624 17.408v152.576c0 15.872-11.264 35.328-25.088 43.52L719.872 685.568c-13.824 8.192-26.624 1.536-28.16-14.336l-17.92-166.912c-1.536-15.872 8.704-34.304 23.552-40.448l153.088-68.096zM670.72 683.008c12.8 9.216 12.288 23.552-1.536 31.744l-132.096 76.288c-13.824 8.192-36.352 8.192-50.176 0l-132.096-76.288c-13.824-8.192-14.848-22.016-1.536-31.744l135.68-99.328c12.8-9.216 33.792-9.216 46.592 0l135.168 99.328zM691.712 96.768c1.536-15.872 14.336-22.528 28.16-14.336l132.096 76.288c13.824 8.192 25.088 27.648 25.088 43.52v152.576c0 15.872-11.776 23.552-26.624 17.408l-153.6-67.584c-14.848-6.656-25.088-24.576-23.552-40.448l18.432-167.424zM353.28 84.992c-12.8-9.216-12.288-23.552 1.536-31.744l132.096-76.288c13.824-8.192 36.352-8.192 50.176 0l132.096 76.288c13.824 8.192 14.848 22.016 1.536 31.744l-135.68 99.328c-12.8 9.216-33.792 9.216-46.592 0l-135.168-99.328zM146.432 384h0.512v0.512zM329.216 67.584h0.512l-0.512 0.512zM694.784 67.584v0.512l-0.512-0.512zM694.784 700.416h-0.512 0.512zM877.056 384h0.512-0.512zM329.216 700.416v-0.512l0.512 0.512zM670.208 475.136l24.576 225.28h-0.512L512 566.784l-182.272 133.632-0.512-0.512 24.576-224.256-206.848-91.136v-0.512l206.848-91.136-24.576-224.768 0.512-0.512 182.272 133.632 182.272-133.632 0.512 0.512-24.576 224.768 206.848 91.136z"  horiz-adv-x="1024" />

    
    <glyph glyph-name="wx_shake-copy" unicode="&#58896;" d="M149.32786748 665.14701943C149.32786748 662.80084336 149.32786748 659.34426504 149.32786748 659.34426504c4.47743408 0 5.35948857 0 7.70118575 0 39.37902979 67.16150596 65.3481457 112.44179355 140.58246445 146.99862686-2.79839619 14.43972393-1.74619951 13.23529453-7.0295713 20.77976953-7.5579082 5.32366875-6.49675635 4.2625169-21.08871298 6.87733857-29.79732128-28.47200097-74.0880958-43.69975313-98.40951562-77.39691943-15.36207539-21.27676552-19.4096751-50.04427676-35.47918477-70.32705205C141.78339161 669.68265908 140.3730002 674.63470078 149.32786748 665.14701943zM817.76842754 208.25624854c4.15058115 15.82772783 29.26898437 33.89417315 21.08423584 63.26166094-3.95805146 14.20689727-31.72709531 31.68232119-35.14785469 42.17294794-9.03546123 27.71531455 26.43029122 40.66405312 14.06361973 77.32080352-6.13856162 18.17838106-34.90607373 27.21831943-42.17742598 42.17294794-3.44762402 7.08777773 23.18415205 44.02660606 14.0591417 70.29123224-5.6952958 16.4053169-37.95520606 28.71378281-42.17294795 42.17294794-8.26086533 26.30492315 23.99008974 43.01918349 7.02509326 77.32080352-10.9159831 22.0692709-50.85469248 24.08411602-63.26166093 42.17294794-44.00421856 64.17953526 14.29196836 114.02680518-112.46418018 112.46865821-68.03460527-49.520417-192.44010146-28.17201269-260.07621592-77.32080352-79.1162543-27.34816552-24.14232247-64.66757519-42.17294795-105.43460976-16.40083974-11.71296651-32.80615664-23.43041104-49.20251924-35.14785469-38.74771143-51.20393203-64.36310977-177.95112627-14.05914169-238.98750293-4.5222082-73.85526914-67.7032752-85.81897266-112.46865821-119.49375146-11.70848935-16.40083974-23.43488818-32.80615664-35.14337754-49.20251924 8.04147099-112.94774297 140.46605068-162.70098662 210.87369668-217.90326797 92.87540771 3.04913232 94.19625088 78.72223974 140.58246446 126.52332275 1.1730876 2.73123458 55.08586758-40.07303174 98.40951562-28.11380625 60.66922675 16.7500793 215.25262646 43.27439677 260.07621592 77.32080351C842.09432451 132.62791522999999 805.08833457 159.91339629000004 817.76842754 208.25624854zM649.06767881 292.60214530999997c-43.54304326 0.90891914-60.64236211 23.67219199-56.23656767 49.20699639 4.98338349 26.17955508 10.31153028 24.85423477 21.08871298 42.17294795 36.33885175 2.43124628 81.37735839 10.70554394 105.43908692 28.11828428 19.16341612-0.16566504 32.20618096-0.27760078 42.17294794-7.0295713C892.16994307 353.57136035999997 665.2580794 302.30922187 649.06767881 292.60214530999997zM754.50228857 468.33246445c-20.30068477-57.0559377-108.02256592-39.95661885-154.63712899-70.29123223-41.95803164 0.08954825-47.51004902 6.70719551-70.29123224 21.08871299 1.39695908 100.87658174 110.06875372 64.39892959 168.70074786 105.43460977 16.29785917-1.5939668 19.82607627-1.38800479 28.11380625-7.02957129C750.75467627 509.67708721 767.4241625 491.23006055 754.50228857 468.33246445zM677.18596308 637.0332123000001c21.93047051-5.29232695 33.15987422-12.29503271 49.20251924-21.08871298 0.21491719-20.48873643 0.3447624-38.31340078-7.02509326-49.20251924-12.96217089-26.61834375-112.71491719-57.12309932-147.61651289-56.23209053-16.31576865 12.42935596-28.16753555 21.14244229-42.17294795 35.14785469 2.19394248 26.47954336 6.23258789 31.79425693 14.0591417 49.20251923C588.14771592 608.9149289100001 632.66683906 622.9695934599999 677.18596308 637.0332123000001zM318.70023066 644.05830644c23.9856126 59.03944102 215.96901592 60.41401348 274.13535762 98.40951563 14.44420107-2.79839619 13.54423711-1.74619951 21.08871299-7.02957129 18.9574541-6.48780117 20.57828555-12.07116123 35.14785469-21.08871299 1.58948877-16.29785917 1.38800479-19.82159912 7.02509326-28.11380625-1.58948877-16.30233633-1.38800479-19.82607627-7.02509326-28.11828427-17.29632656-7.49970176-54.91572451 11.48461787-91.37994521 0-79.33564864-24.99751231-174.78110302-72.49412989-246.01707422-42.17294795C313.26014903 632.23788135 313.05418701 635.76609844 318.70023066 644.05830644zM311.67066026-23.710638280000012c-96.52003857 3.64015371-140.68992305 98.17221182-203.84412539 140.58246445 6.61764727 90.73519453 107.73153281 92.0246959 133.55289316 168.70074786 32.78377002 55.84255313-39.98348349 103.91675977-21.08423584 175.73031913 15.2008875 57.76337285 49.11297099 76.68052998 84.35037393 112.46418018 79.05804786-2.93719658 121.92947578-53.07549961 175.73031914-84.35037393-2.73123458-32.16588398-9.51006885-36.82241543-21.08871299-56.67983349C411.70548448 422.11639307 350.61985567 422.04027715 325.72532393 453.38231309c-2.33722002 0-4.68787325 0-7.0295713-1e-8 5.4356045-58.20663867 64.26908349-286.4706873 91.37994523-322.89461103C399.28060567 67.34693115000005 342.0231831 24.300883880000015 311.67066026-23.710638280000012zM780.64602383 159.0537293c-67.16150596-41.97146396-184.53295371-38.12982539-252.92575459-84.35037393C390.47797109 72.72880723000003 431.40619268 290.89624276999996 373.19955401 376.95251924c0 4.68787325 0 9.37126846 0 14.0591417 17.90973457-1.40143711 24.74229903-3.10733877 36.0119997-7.0295713 14.63673076-65.44217109 31.93305732-138.78253565 56.66640117-196.81455497 32.73004072-5.83857334 86.20850917-0.30894258 112.68357452 21.08871299 16.21278721-2.28796875 17.57392734-3.26852666 28.22574198-7.02957129-7.26239795-10.55778838-10.3563044-13.92034131-21.02602851-21.08871299 3.25957148-31.64202422 8.11758779-30.05253545 20.1215874-49.20251924C660.18514677 141.17533652999998 717.96195195 175.95604131000005 780.64602383 180.13796426 780.64602383 173.10839384999997 780.64602383 166.07882256000005 780.64602383 159.0537293zM698.27467607 187.16753555000003c-39.1551583 0.79698339-41.56849512 7.39672031-63.26166094 21.08871299-2.16707783 27.16011299-7.36985567 30.20029013 7.02509327 49.96368281 21.83644424 26.81982773 70.3001874 20.54246572 98.40951562 42.92963438 14.0591417 0 28.11828428 0 42.17742598 0 7.83103183-13.43230136 17.60974717-26.07657363 28.11380625-35.90901826C800.58403672 196.41791395999996 744.44149443 217.17081885000005 698.27467607 187.16753555000003zM227.96951328 714.34953867C218.23109492 700.8232110399999 216.48937344 684.3507325200001 207.53450615 672.17658984c0-9.36679131 0-18.74701494 0-28.11380625 4.47743408-2.34169805 13.40543672-4.68787325 20.43500713-7.02957129 22.96923487 49.60548808 45.10119023 79.07148018 91.05309229 105.43460978-5.93259961 23.99904492-3.34016543 17.87839278-20.92304795 28.11828427C277.87498965 749.95856865 244.88525849 737.83367813 227.96951328 714.34953867zM529.04559043 693.26530283C503.60928945 674.20934531 444.83849404 664.0992999 409.01902403 658.11744815c0-4.68787325 0-9.37126846 0-14.0591417 53.72920459 3.19240987 83.72353359 22.35134883 133.81706162 28.11380625C536.66170508 688.76548213 540.45856865 683.77314346 529.04559043 693.26530283zM888.05518174 144.99010956999996c-2.58347901 28.96899609 1.68351503 26.19746455-21.08423585 35.14785469-25.88404482-49.09506065-39.33425566-90.00537276-84.35037392-119.49375147 4.68787325-7.02509326 9.37126846-14.0591417 14.0591417-21.08423584C855.10126953 57.93088856999998 855.46841943 102.15450146 888.05518174 144.99010956999996zM951.3213207 173.10839384999997c-12.72038906-3.33568828-22.15881914 1.77306416-28.11828427-7.02957129-2.33722002-18.74253779-4.37892979-37.49402989-6.71167354-56.23656767-17.31423604-41.21925469-55.25153261-77.62079092-91.07100175-98.40951563 0-9.37126846 0-18.74701494 0-28.11380625 94.02610869 8.70413115 92.24408935 93.15748653 133.23947344 154.64160615C957.25839746 156.21055897999997 955.2390752 161.83869317000006 951.3213207 173.10839384999997z"  horiz-adv-x="1024" />

    
    <glyph glyph-name="qunliao" unicode="&#58898;" d="M2.27555555 893.72444445v-1019.4488889h1019.4488889V893.72444445H2.27555555z m686.87644445-794.1688889H153.71377778c-10.12622222 0-18.09066667 8.64711111-17.408 18.77333334 7.73688889 107.86133333 82.14755555 199.33866667 184.20622222 236.99911111-40.73244445 30.03733333-68.15288889 80.55466667-68.15288889 138.92266667 0 94.66311111 74.29688889 174.30755555 168.04977778 174.30755555 92.04622222 0 170.78044445-79.64444445 170.78044444-174.30755555 0-58.368-28.33066667-108.77155555-76.11733333-138.92266667 108.77155555-37.66044445 183.52355555-129.13777778 191.37422222-236.99911111 0.79644445-10.12622222-7.168-18.77333333-17.29422222-18.77333334z m181.248 0h-110.36444445c-9.10222222 0-16.61155555 7.168-17.18044444 16.15644445-5.80266667 104.78933333-68.38044445 196.83555555-169.41511111 245.64622222 34.47466667 32.768 54.84088889 83.17155555 54.84088889 132.66488889 0 14.336-3.072 30.03733333-5.80266667 43.57688889-1.93422222 9.55733333 4.32355555 18.77333333 13.88088889 20.36622222 6.144 1.024 12.62933333 1.47911111 19.34222222 1.47911111 79.64444445 0 138.92266667-61.89511111 138.92266667-140.62933333 0-38.00177778-22.98311111-86.69866667-57.45777778-112.41244445 82.48888889-28.89955555 142.79111111-102.4 150.41422223-188.30222222 1.024-9.89866667-7.05422222-18.54577778-17.18044445-18.54577778z"  horiz-adv-x="1024" />

    
    <glyph glyph-name="gengduo1" unicode="&#59033;" d="M249.24084 837.249439A34.119811 34.119811 0 1 0 297.281533 885.69957l477.677347-473.44649a34.119811 34.119811 0 0 0 0.204719-48.245412l-477.677347-481.908204a34.119811 34.119811 0 0 0-48.450131 48.040693l453.657001 457.683138L249.24084 837.249439z"  horiz-adv-x="1024" />

    
    <glyph glyph-name="weixinshoucang" unicode="&#58899;" d="M511.886222 896L1024 650.24 511.886222 384 0 650.24 511.886222 896zM500.622222-128L0 111.980089V611.555556l500.622222-256.8192V-128zM523.377778 354.736356L1024 611.555556v-499.598223L523.377778-128V354.736356z"  horiz-adv-x="1024" />

    
    <glyph glyph-name="weixinshezhi" unicode="&#58901;" d="M1014.601956 237.317689c1.683911-8.419556 0-20.252444-1.683912-32.039822-1.661156-11.810133-6.712889-25.281422-11.764622-36.522667-5.006222-13.494044-11.741867-23.620267-18.477511-33.723733a62.805333 62.805333 0 0 0-25.1904-21.9136 45.806933 45.806933 0 0 0-23.506489-6.7584c-6.735644 0-13.425778 1.683911-21.845333 5.074489-6.712889 1.683911-16.7936 5.051733-26.874311 6.735644-11.764622 1.683911-21.845333 1.683911-33.609956 1.683911-11.741867-1.683911-23.506489-3.367822-33.5872-6.7584-11.764622-3.367822-21.845333-10.103467-30.242133-18.523022-18.477511-18.545778-28.558222-38.229333-31.903289-61.826845-3.367822-23.620267 0-44.964978 8.3968-66.901333 6.712889-15.1552 5.028978-28.649244-3.367822-43.258311a136.533333 136.533333 0 0 0-21.845334-18.545778 190.919111 190.919111 0 0 0-31.903288-16.839111c-11.764622-5.074489-23.529244-8.442311-35.271112-11.832889C660.138667-128 648.3968-128 638.293333-128c-6.712889 0-13.425778 3.367822-18.477511 8.419556-5.028978 5.074489-10.080711 10.126222-11.764622 16.884622h1.683911c-8.3968 23.597511-21.845333 41.5744-39.753955 58.436266-18.477511 16.861867-41.415111 25.304178-66.628267 25.304178-25.1904 0-46.466844-6.7584-66.628267-23.620266-20.161422-16.839111-35.271111-35.407644-43.121778-56.752356-3.367822-8.419556-10.080711-15.177956-16.7936-18.545778a53.475556 53.475556 0 0 0-23.529244-5.074489 99.214222 99.214222 0 0 0-35.271111 6.7584c-13.425778 3.367822-25.1904 8.419556-38.070045 15.177956-13.425778 5.051733-23.529244 11.787378-33.609955 20.229689a100.397511 100.397511 0 0 0-23.506489 21.9136 34.087822 34.087822 0 0 0-5.051733 18.545778c0 6.7584 3.367822 16.861867 8.419555 28.672 8.374044 16.839111 11.741867 35.407644 10.057956 56.752355-1.661156 21.9136-10.080711 41.597156-26.851556 60.142933a64.944356 64.944356 0 0 1-36.408889 21.9136 189.144178 189.144178 0 0 1-41.437866 5.051734c-15.132444 0-31.926044-3.367822-46.4896-8.419556-10.057956-3.367822-20.138667-1.683911-30.219378 3.367822-8.419556 3.367822-15.132444 10.103467-21.845333 20.252445a174.421333 174.421333 0 0 0-18.477512 35.384889c-5.051733 13.494044-8.419556 26.988089-11.764622 39.913244-3.345067 13.471289-3.345067 25.281422-1.661155 33.723734 1.661156 16.839111 10.057956 26.965333 21.845333 30.333155 21.822578 8.419556 41.415111 21.936356 59.892622 41.597156 18.477511 20.252444 26.874311 41.597156 26.874311 66.901333 0 25.258667-8.3968 48.310044-25.1904 66.855822s-36.408889 33.723733-58.254222 41.597156c-6.690133 1.683911-11.741867 6.735644-16.7936 16.839111a47.763911 47.763911 0 0 0-6.712889 25.304178c0 10.126222 1.683911 20.252444 5.051734 32.039822 3.345067 11.810133 6.712889 23.597511 11.764622 33.723733 5.028978 10.103467 10.057956 20.229689 16.7936 30.333156 6.712889 8.419556 13.425778 15.177956 20.161422 20.252444 6.712889 3.367822 11.741867 5.051733 16.7936 3.367822 5.028978 0 11.741867-1.683911 18.477511-5.051733a157.013333 157.013333 0 0 1 68.312178-10.126222c23.506489 3.367822 44.782933 13.494044 63.260444 30.355911 8.419556 8.419556 15.132444 20.229689 20.161423 32.017067 5.051733 13.494044 6.735644 25.304178 8.419555 38.229333a113.618489 113.618489 0 0 1 0 33.723733c-1.706667 10.103467-1.706667 18.545778-1.706667 21.9136-1.661156 5.051733-3.345067 10.126222-3.345066 15.177956a21.208178 21.208178 0 0 0 1.683911 15.177955c5.028978 10.103467 11.764622 18.545778 23.506489 26.965334 11.764622 6.7584 23.529244 13.494044 36.408889 18.545778A192.7168 192.7168 0 0 0 346.567111 892.632178C358.354489 894.316089 368.4352 896 376.832 896c10.080711 0 16.7936-3.367822 21.845333-10.103467 5.006222-6.7584 8.3968-13.494044 11.741867-20.252444 8.419556-20.229689 20.161422-36.522667 38.070044-53.384533 18.477511-15.177956 39.776711-23.597511 63.2832-23.597512 25.1904 0 48.150756 6.735644 68.312178 20.229689 20.161422 13.494044 33.5872 32.039822 41.437867 53.384534 3.367822 5.051733 8.419556 11.810133 13.425778 18.545777 10.103467 10.126222 15.132444 13.494044 21.845333 13.494045 10.080711 0 21.845333-1.683911 33.609956-5.051733 11.741867-3.367822 23.506489-6.7584 35.271111-13.494045 11.764622-5.051733 21.845333-11.810133 31.903289-20.252444 10.103467-8.419556 16.816356-16.839111 23.529244-26.965334 3.367822-6.735644 5.028978-11.787378 3.367822-18.545777a78.506667 78.506667 0 0 0-5.051733-15.177956c-10.080711-21.9136-13.425778-43.258311-10.080711-66.878578 3.367822-23.597511 13.425778-43.258311 30.264889-61.804089 16.770844-18.545778 38.047289-28.672 63.260444-30.355911 25.1904-1.683911 49.834667 1.683911 71.68 11.810134 5.006222 3.367822 13.425778 5.051733 21.822578 3.367822 8.419556-1.683911 15.109689-5.074489 21.845333-10.126222 10.080711-10.126222 20.161422-26.988089 28.558222-46.648889 8.3968-21.9136 13.425778-41.597156 16.7936-63.488 1.683911-11.832889-1.683911-21.936356-6.735644-28.672-5.006222-6.7584-11.741867-11.810133-16.7936-13.494045-23.506489-8.419556-41.415111-21.9136-58.231467-41.597155-16.7936-20.229689-25.1904-41.5744-25.1904-68.562489 0-25.281422 6.712889-46.648889 18.477511-65.194667 13.425778-18.545778 30.242133-32.039822 51.518578-39.890489 5.028978-3.390578 10.080711-6.7584 13.425778-8.419555 6.144-9.0112 11.195733-17.453511 14.563556-27.556978z m-509.474134-89.929956c33.655467 0 63.374222 5.051733 93.661867 16.884623 30.264889 11.810133 54.954667 28.672 76.822755 50.062222 21.868089 21.936356 39.822222 46.671644 51.586845 75.3664a216.951467 216.951467 0 0 1 20.184178 92.251022c0 33.769244-5.051733 63.579022-16.839111 92.273778a242.938311 242.938311 0 0 1-49.880178 77.050311c-21.868089 21.936356-46.557867 39.936-75.1616 51.768889a215.108267 215.108267 0 0 1-91.9552 20.252444c-33.655467 0-63.374222-5.074489-93.661867-16.884622a242.005333 242.005333 0 0 1-76.822755-50.062222c-21.845333-21.936356-39.822222-46.6944-51.586845-75.389156-11.764622-26.988089-18.500267-56.797867-20.184178-90.567111 0-33.746489 5.051733-63.556267 16.839111-92.251022a242.983822 242.983822 0 0 1 49.902934-77.073067c21.845333-21.936356 46.535111-39.936 75.138844-53.430044a211.512889 211.512889 0 0 1 91.9552-20.252445z"  horiz-adv-x="1024" />

    
    <glyph glyph-name="weixinxiangce" unicode="&#58902;" d="M336.384 492.544L56.32 198.656l17.92-137.216h871.424l15.36 69.632-233.472 204.288-126.464-154.112 2.048-21.504-9.216 12.288c0.512 0.512-257.536 320.512-257.536 320.512zM935.424 666.624H88.576c-20.48 0-37.376-15.872-37.376-35.328v-563.712c0-19.456 16.896-35.328 37.376-35.328h846.336c20.48 0 37.376 15.872 37.376 35.328V631.296c0.512 19.456-16.384 35.328-36.864 35.328z m-11.776-592.384H100.352V624.128h823.296v-549.888z"  horiz-adv-x="1024" />

    
    <glyph glyph-name="biaoqian" unicode="&#58903;" d="M0 896h1024v-1024H0V896zM451.203657 72.323657l-236.397714 245.511314c-5.997714 6.100114-10.005943 14.204343-10.005943 26.389943 0 8.118857 4.008229 16.237714 10.020571 22.3232l300.485486 296.2432c6.012343 4.052114 12.024686 8.118857 20.041143 8.118857L799.773257 691.2c10.020571 0 20.041143-4.052114 26.038857-10.152229 6.012343-8.104229 8.016457-16.237714 8.016457-26.375314l-28.042971-265.801143c-2.004114-8.133486-4.008229-14.218971-10.020571-20.304457L495.279543 72.309029c-6.012343-6.085486-14.0288-10.1376-22.045257-10.1376-8.001829 0-16.018286 4.052114-22.030629 10.152228z m290.479543 470.747429c0 34.494171-26.038857 60.869486-60.1088 60.869485-34.055314 0-60.094171-26.375314-60.094171-60.854857 0-34.5088 26.038857-60.884114 60.094171-60.884114 34.055314 0 60.1088 26.375314 60.1088 60.869486z"  horiz-adv-x="1024" />

    
    <glyph glyph-name="xindepengyou" unicode="&#58904;" d="M0 896h1024v-1024H0V896zM568.027429 216.356571c0 20.655543 4.856686 40.170057 13.502171 57.475658a123.757714 123.757714 0 0 1-15.008914 3.584c-13.560686 2.165029-14.101943 40.667429-14.101943 40.667428s40.126171 40.667429 49.342171 95.451429c23.873829 0 38.517029 58.031543 14.6432 78.628571 1.082514 21.7088 30.368914 169.208686-118.769371 169.208686-149.138286 0.541257-119.851886-146.973257-118.769372-168.667429-23.844571-20.597029-9.216-78.628571 14.6432-78.628571 8.689371-54.769371 49.3568-95.451429 49.3568-95.451429s-0.541257-38.5024-14.101942-40.667428C384.292571 270.906514 219.428571 196.608 219.428571 114.688h398.218972a128.643657 128.643657 0 0 0-49.634743 101.653943zM697.153829 110.401829c-14.511543 0-28.233143 2.7648-41.194058 8.2944a106.715429 106.715429 0 0 0-33.938285 22.791314 106.773943 106.773943 0 0 0-22.791315 33.938286 103.877486 103.877486 0 0 0-8.2944 41.179428 103.862857 103.862857 0 0 0 8.2944 41.194057 103.760457 103.760457 0 0 0 22.791315 33.674972 108.865829 108.865829 0 0 0 33.938285 22.528 103.862857 103.862857 0 0 0 41.194058 8.309028 103.862857 103.862857 0 0 0 41.194057-8.2944 105.749943 105.749943 0 0 0 33.660343-22.528 105.706057 105.706057 0 0 0 22.542628-33.6896 103.862857 103.862857 0 0 0 8.2944-41.194057 103.862857 103.862857 0 0 0-8.2944-41.179428 108.895086 108.895086 0 0 0-22.528-33.938286 103.570286 103.570286 0 0 0-33.6896-22.791314 103.804343 103.804343 0 0 0-41.179428-8.2944z m52.3264 123.318857h-38.326858V269.458286c0 4.827429-1.565257 8.981943-4.681142 12.434285a15.316114 15.316114 0 0 1-11.907658 5.178515c-4.827429 0-8.630857-1.726171-11.410285-5.178515a19.309714 19.309714 0 0 1-4.139886-12.434285v-35.752229h-33.674971c-4.827429 0-8.967314-1.726171-12.434286-5.178514-3.452343-3.452343-5.178514-7.606857-5.178514-12.434286 0-4.827429 1.726171-8.455314 5.178514-10.883657 3.452343-2.413714 7.606857-3.627886 12.434286-3.627886h33.674971v-36.776228c0-4.827429 1.389714-8.981943 4.154514-12.434286 2.7648-3.452343 6.5536-5.178514 11.395657-5.178514 4.827429 0 8.8064 1.726171 11.922286 5.178514 3.101257 3.452343 4.651886 7.606857 4.651886 12.434286V201.581714h38.341486v-1.024c4.827429 0 8.981943 1.375086 12.434285 4.139886 3.452343 2.7648 5.178514 6.568229 5.178515 11.410286 0 4.827429-1.726171 8.967314-5.178515 12.434285a16.969143 16.969143 0 0 1-12.434285 5.163886z"  horiz-adv-x="1024" />

    
    <glyph glyph-name="biaoxing" unicode="&#58905;" d="M512 71.7312l-292.18304-156.0576a7.68 7.68 0 0 0-11.19232 8.05376l55.8336 330.70592L27.83744 488.7552a7.68 7.68 0 0 0 4.28032 13.056l326.89152 48.256 146.08384 300.6976a7.68 7.68 0 0 0 13.81376 0l146.07872-300.6976 326.89152-48.256a7.68 7.68 0 0 0 4.28544-13.056l-236.6208-234.3168 55.82848-330.7008a7.68 7.68 0 0 0-11.1872-8.05376L512 71.72608z"  horiz-adv-x="1024" />

    
    <glyph glyph-name="weixinqiabao" unicode="&#58906;" d="M754.202624-64.878592H95.614976c-52.719616 0-95.604736 42.883072-95.604736 95.604736V490.201088c0 52.719616 42.88512 95.604736 95.604736 95.604736h658.587648c52.719616 0 95.604736-42.88512 95.604736-95.604736v-459.474944c-0.002048-52.719616-42.88512-95.604736-95.604736-95.604736zM95.614976 522.070016c-17.58208 0-31.868928-14.2848-31.868928-31.868928v-459.474944c0-17.584128 14.286848-31.86688 31.868928-31.86688h658.587648c17.584128 0 31.868928 14.282752 31.868928 31.86688V490.201088c0 17.584128-14.2848 31.868928-31.868928 31.868928H95.614976zM924.186624 832.878592H265.53344c-52.719616 0-95.602688-42.88512-95.602688-95.604736v-91.932672s-1.806336-26.390528 31.557632-26.390528c33.36192 0 32.178176 26.390528 32.178176 26.390528V737.273856c0 17.58208 14.31552 31.86688 31.86688 31.86688h658.651136c17.55136 0 31.868928-14.2848 31.868928-31.86688v-459.474944c0-17.58208-14.31552-31.868928-31.868928-31.868928h-18.11456s-20.600832-10.051584-20.600832-33.30048c0-23.246848 21.940224-30.435328 21.940224-30.435328h16.77312c52.717568 0 95.606784 42.883072 95.606784 95.604736V737.273856c0.002048 52.717568-42.88512 95.604736-95.602688 95.604736z"  horiz-adv-x="1024" />

    
    <glyph glyph-name="contacts-o" unicode="&#58907;" d="M796.424-7.416000000000054H99.672c-43.608 0-34.048 68.072-34.048 68.072-1.048 41.488 34.048 68.072 34.048 68.072S278.36 214.88 303.888 230.84000000000003c20.776 12.992 30.152 38.392 32.976 47.464-60.64 56.672-118.056 151.168-118.056 207.808V571.192c-2.128 100.048 108.44 204.216 204.208 204.216h34.032c89.376 1.064 207.408-99.912 204.2-204.216v-85.088c0-46.504-38.936-147.272-101.544-207.24 2.592-8.568 11.92-34.768 33.064-48.032 25.456-15.952 203.656-102.104 203.656-102.104s35.016-26.584 33.952-68.072c0 0 9.544-68.072-33.952-68.072z m-33.936 102.104L558.832 196.79999999999995s-50.904 22.336-50.904 68.08l0.176 0.064v32.704c67.192 40.184 102.104 147.68 102.104 202.752V583.288c0 76.48-85.816 141.064-157.08 141.064h-26.192c-67.872 0-157.08-66.48-157.08-141.064v-82.896c0-68.864 62.352-171.112 119.112-206.176v-29.344c0-45.736-51.032-68.08-51.032-68.08l-204.216-102.112c-24.464-20.2-17.016-51.048-17.016-51.048h662.76c-0.008 0.008 7.416 30.856-16.976 51.056zM732 546h265v-53H732zM785 404h212V352h-212zM838 262h159v-51H838z"  horiz-adv-x="1024" />

    
    <glyph glyph-name="gongzhonghao" unicode="&#59004;" d="M30.117647 896h963.764706a30.117647 30.117647 0 0 0 30.117647-30.117647v-963.764706a30.117647 30.117647 0 0 0-30.117647-30.117647H30.117647a30.117647 30.117647 0 0 0-30.117647 30.117647V865.882353a30.117647 30.117647 0 0 0 30.117647 30.117647z m662.588235-486.4V655.058824a60.235294 60.235294 0 0 1-60.235294 60.235294H210.823529a60.235294 60.235294 0 0 1-60.235294-60.235294v-512a60.235294 60.235294 0 0 1 60.235294-60.235295h327.228236A225.972706 225.972706 0 0 0 692.705882 409.6zM722.823529 22.588235a180.705882 180.705882 0 1 1 0 361.411765 180.705882 180.705882 0 0 1 0-361.411765zM301.176471 474.352941a60.235294 60.235294 0 1 0 0 120.470588 60.235294 60.235294 0 0 0 0-120.470588z m-60.235295-90.352941h240.941177v-30.117647H240.941176v30.117647z m0-90.352941h180.705883v-30.117647H240.941176v30.117647z m0-90.352941h180.705883v-30.117647H240.941176v30.117647z m563.501177 62.554353a12.047059 12.047059 0 1 0 17.046588-17.016471l-118.573176-118.603294a12.047059 12.047059 0 0 0-17.046589 0l-58.277647 58.307765a12.047059 12.047059 0 1 0 17.016471 17.01647l49.784471-49.754353 110.049882 110.049883z"  horiz-adv-x="1024" />

    


  </font>
</defs>
</svg>
